<svg xmlns="http://www.w3.org/2000/svg" xmlns:xlink="http://www.w3.org/1999/xlink" width="1760" height="2720"><g transform="translate(0 0)"><path d="M82 145c0-2.76 2.24-5 5-5h1608c2.76 0 5 2.24 5 5v58c0 2.76-2.24 5-5 5H87c-2.76 0-5-2.24-5-5z" fill="#fff"/><path d="M82 174h1618v34H82z" fill="#fff"/><path d="M87 2280c-2.76 0-5-2.24-5-5V145c0-2.76 2.24-5 5-5h1608c2.76 0 5 2.24 5 5v2130c0 2.76-2.24 5-5 5zM82 208h1618M302 140v2140M765.12 140v2140M1340 140v2140" stroke="#666" stroke-width="2" fill="none"/><use xlink:href="#a" transform="matrix(1,0,0,1,82,140) translate(86.60493827160494 38.44444444444444)"/><use xlink:href="#b" transform="matrix(1,0,0,1,302,140) translate(157.46296296296296 38.44444444444444)"/><use xlink:href="#c" transform="matrix(1,0,0,1,302,140) translate(272.03086419753083 38.44444444444444)"/><use xlink:href="#d" transform="matrix(1,0,0,1,302,140) translate(284.37654320987656 38.44444444444444)"/><use xlink:href="#e" transform="matrix(1,0,0,1,765.1240234375,140) translate(248.1172839506173 38.44444444444444)"/><use xlink:href="#f" transform="matrix(1,0,0,1,1340,140) translate(115.30864197530865 25.111111111111114)"/><use xlink:href="#g" transform="matrix(1,0,0,1,1340,140) translate(168.2716049382716 25.111111111111114)"/><use xlink:href="#h" transform="matrix(1,0,0,1,1340,140) translate(73.42592592592592 51.77777777777778)"/><use xlink:href="#i" transform="matrix(1,0,0,1,1340,140) translate(123.85802469135803 51.77777777777778)"/><use xlink:href="#j" transform="matrix(1,0,0,1,1340,140) translate(169.41358024691357 51.77777777777778)"/><path d="M140 325c0-2.76 2.24-5 5-5h130c2.76 0 5 2.24 5 5v210c0 2.76-2.24 5-5 5H145c-2.76 0-5-2.24-5-5z" stroke="#666" stroke-width="5" fill="#fff"/><use xlink:href="#k" transform="matrix(1,0,0,1,140,320) translate(37.574999999999996 92)"/><use xlink:href="#l" transform="matrix(1,0,0,1,140,320) translate(27.624999999999993 113.6)"/><use xlink:href="#m" transform="matrix(1,0,0,1,140,320) translate(27.65 135.2)"/><path d="M493.12 640v15c0 2.76 2.24 5 5 5h146c2.77 0 5 2.24 5 5v15" stroke="#999" stroke-width="2" fill="none"/><path d="M494.12 640h-2v-.46h.2l1.8-.03zM649.12 680l-4.63-14.27h9.26z" fill="#999"/><path d="M650.18 680h-2.1l-4.97-15.27h12.04zm-4.3-13.27l3.24 10.03 3.26-10.03z" fill="#999"/><path d="M31.33 80H1728" stroke="#999" stroke-width="2" fill="none"/><path d="M713.12 680c8.84 0 16 130.33 16 291.1s-7.16 291.1-16 291.1h-128c-8.83 0-16-130.33-16-291.1s7.17-291.1 16-291.1z" stroke="#666" stroke-width="5" fill="#fff"/><path d="M713.12 1262.2c-8.83 0-16-130.33-16-291.1s7.17-291.1 16-291.1" stroke="#666" stroke-width="5" fill="none"/><use xlink:href="#n" transform="matrix(1,0,0,1,574.1240234375,685) translate(11.599999999999994 160.50000000000003)"/><use xlink:href="#o" transform="matrix(1,0,0,1,574.1240234375,685) translate(55.5 160.50000000000003)"/><use xlink:href="#p" transform="matrix(1,0,0,1,574.1240234375,685) translate(59 182.10000000000002)"/><use xlink:href="#q" transform="matrix(1,0,0,1,574.1240234375,685) translate(14.149999999999999 203.70000000000002)"/><use xlink:href="#r" transform="matrix(1,0,0,1,574.1240234375,685) translate(6.099999999999994 225.30000000000004)"/><use xlink:href="#s" transform="matrix(1,0,0,1,574.1240234375,685) translate(53.05 225.30000000000004)"/><use xlink:href="#t" transform="matrix(1,0,0,1,574.1240234375,685) translate(43.05 246.90000000000003)"/><use xlink:href="#u" transform="matrix(1,0,0,1,574.1240234375,685) translate(17.549999999999997 268.5)"/><use xlink:href="#v" transform="matrix(1,0,0,1,574.1240234375,685) translate(64.5 268.5)"/><use xlink:href="#w" transform="matrix(1,0,0,1,574.1240234375,685) translate(24.099999999999994 290.1)"/><use xlink:href="#p" transform="matrix(1,0,0,1,574.1240234375,685) translate(59 311.7)"/><use xlink:href="#x" transform="matrix(1,0,0,1,574.1240234375,685) translate(3.25 333.29999999999995)"/><use xlink:href="#y" transform="matrix(1,0,0,1,574.1240234375,685) translate(54.75 333.29999999999995)"/><use xlink:href="#p" transform="matrix(1,0,0,1,574.1240234375,685) translate(59 354.9)"/><use xlink:href="#z" transform="matrix(1,0,0,1,574.1240234375,685) translate(3.1499999999999915 376.5)"/><use xlink:href="#A" transform="matrix(1,0,0,1,574.1240234375,685) translate(35.99999999999999 376.5)"/><use xlink:href="#B" transform="matrix(1,0,0,1,574.1240234375,685) translate(10.549999999999997 398.09999999999997)"/><use xlink:href="#C" transform="matrix(1,0,0,1,574.1240234375,685) translate(91.5 398.09999999999997)"/><use xlink:href="#D" transform="matrix(1,0,0,1,574.1240234375,685) translate(23.599999999999994 419.7)"/><path d="M385.12 586c-19.88 0-36-16.12-36-36 0-15.9 9.75-29.32 24.88-34.24C373.12 469 433.12 460 457.12 478c12-27 72-18 72 9 36-9 72 27 48 72 24 36 0 81-48 63-12 23.4-60 23.4-72 0-24 18-72 9-72-36z" stroke="#666" stroke-width="5" fill="#fff"/><use xlink:href="#E" transform="matrix(1,0,0,1,354.12402343750006,465) translate(66.125 88.60000000000001)"/><path d="M315.12 756c0-2.76 2.24-5 5-5h170c2.77 0 5 2.24 5 5v108c0 2.76-2.23 5-5 5h-170c-2.76 0-5-2.24-5-5z" stroke="#666" stroke-width="5" fill="#fff"/><use xlink:href="#F" transform="matrix(1,0,0,1,320.12402343750006,756) translate(30.624999999999993 14.899999999999993)"/><use xlink:href="#G" transform="matrix(1,0,0,1,320.12402343750006,756) translate(100.475 14.899999999999993)"/><use xlink:href="#H" transform="matrix(1,0,0,1,320.12402343750006,756) translate(36.574999999999996 36.49999999999999)"/><use xlink:href="#I" transform="matrix(1,0,0,1,320.12402343750006,756) translate(9.125 58.099999999999994)"/><use xlink:href="#J" transform="matrix(1,0,0,1,320.12402343750006,756) translate(51.025 58.099999999999994)"/><use xlink:href="#K" transform="matrix(1,0,0,1,320.12402343750006,756) translate(118.92500000000001 58.099999999999994)"/><use xlink:href="#L" transform="matrix(1,0,0,1,320.12402343750006,756) translate(31.824999999999996 79.70000000000002)"/><use xlink:href="#M" transform="matrix(1,0,0,1,320.12402343750006,756) translate(53.27499999999999 79.70000000000002)"/><use xlink:href="#N" transform="matrix(1,0,0,1,320.12402343750006,756) translate(101.225 79.70000000000002)"/><use xlink:href="#O" transform="matrix(1,0,0,1,320.12402343750006,756) translate(30.674999999999997 101.30000000000001)"/><path d="M309.12 1045c0-2.76 2.24-5 5-5h170c2.77 0 5 2.24 5 5v130c0 2.76-2.23 5-5 5h-170c-2.76 0-5-2.24-5-5z" stroke="#666" stroke-width="6" fill="#fff"/><use xlink:href="#F" transform="matrix(1,0,0,1,314.12402343750006,1045) translate(20.625 68.60000000000001)"/><use xlink:href="#P" transform="matrix(1,0,0,1,314.12402343750006,1045) translate(90.47500000000001 68.60000000000001)"/><path d="M570.58 816.12H535.1c-.97 0-1.75-.78-1.75-1.75 0-.96-.78-1.74-1.75-1.74h-35.48" stroke="#999" stroke-width="2" fill="none"/><path d="M571.98 817.12h-1.4v-2h1.44zM510.4 817.26l-14.28-4.63L510.4 808z" fill="#999"/><path d="M511.4 818.64l-16.28-5.3v-1.44l16.27-5.28zm-12.04-6l10.03 3.25v-6.53z" fill="#999"/><path d="M496.12 843.83h34.8c1.2 0 2.17.97 2.17 2.18 0 1.2.97 2.2 2.18 2.2h34.8" stroke="#999" stroke-width="2" fill="none"/><path d="M496.12 844.83h-1v-2h1zM570.07 848.2l-14.27 4.63v-9.27z" fill="#999"/><path d="M571.4 847.58v1.23l-16.6 5.4v-12.02zm-14.6 3.87l10.03-3.26-10.03-3.27z" fill="#999"/><path d="M569.9 1090.75h-35.94c-2.18 0-3.94 1.77-3.94 3.95s-1.77 3.95-3.95 3.95h-35.95" stroke="#999" stroke-width="2" fill="none"/><path d="M570.84 1091.75h-.93v-2h.86zM504.4 1103.28l-14.28-4.63 14.27-4.64z" fill="#999"/><path d="M505.4 1104.66l-16.28-5.28v-1.46l16.27-5.28zm-12.04-6l10.03 3.25v-6.5z" fill="#999"/><path d="M490.12 1141.33h40.13c.33 0 .6.27.6.6 0 .33.26.6.6.6h40.12" stroke="#999" stroke-width="2" fill="none"/><path d="M490.12 1142.33h-1v-2h1zM571.57 1142.53l-14.27 4.63v-9.27z" fill="#999"/><path d="M572.74 1141.86l.05 1.32-16.5 5.36v-12.03zm-14.44 3.92l10.03-3.25-10.03-3.26z" fill="#999"/><path d="M1270 1448c0 6.63-29.1 12-65 12s-65-5.37-65-12v-96c0-6.63 29.1-12 65-12s65 5.37 65 12z" stroke="#c92d39" stroke-width="5" fill="#fff"/><path d="M1270 1352c0 6.63-29.1 12-65 12s-65-5.37-65-12" stroke="#c92d39" stroke-width="5" fill="none"/><use xlink:href="#Q" transform="matrix(1,0,0,1,1145,1369) translate(21.099999999999994 25)"/><use xlink:href="#R" transform="matrix(1,0,0,1,1145,1369) translate(45.55 46.6)"/><use xlink:href="#S" transform="matrix(1,0,0,1,1145,1369) translate(60 68.2)"/><path d="M1264.7 1535.25c10.1 0 18.3 50.48 18.3 112.75s-8.2 112.75-18.3 112.75h-146.4c-10.1 0-18.3-50.48-18.3-112.75s8.2-112.75 18.3-112.75z" stroke="#c92d39" stroke-width="5" fill="#fff"/><path d="M1264.7 1760.75c-10.1 0-18.3-50.48-18.3-112.75s8.2-112.75 18.3-112.75" stroke="#c92d39" stroke-width="5" fill="none"/><use xlink:href="#T" transform="matrix(1,0,0,1,1105,1540.25) translate(43.05 25.20000000000001)"/><use xlink:href="#U" transform="matrix(1,0,0,1,1105,1540.25) translate(23.099999999999994 46.80000000000001)"/><use xlink:href="#p" transform="matrix(1,0,0,1,1105,1540.25) translate(68.5 68.40000000000002)"/><use xlink:href="#V" transform="matrix(1,0,0,1,1105,1540.25) translate(17.125 90.00000000000003)"/><use xlink:href="#W" transform="matrix(1,0,0,1,1105,1540.25) translate(75.025 90.00000000000003)"/><use xlink:href="#X" transform="matrix(1,0,0,1,1105,1540.25) translate(48.025 111.60000000000002)"/><use xlink:href="#Y" transform="matrix(1,0,0,1,1105,1540.25) translate(5.67499999999999 133.20000000000002)"/><use xlink:href="#Z" transform="matrix(1,0,0,1,1105,1540.25) translate(7.124999999999993 154.8)"/><use xlink:href="#aa" transform="matrix(1,0,0,1,1105,1540.25) translate(29.024999999999995 154.8)"/><use xlink:href="#ab" transform="matrix(1,0,0,1,1105,1540.25) translate(80.975 154.8)"/><use xlink:href="#ac" transform="matrix(1,0,0,1,1105,1540.25) translate(36.125 176.4)"/><use xlink:href="#ad" transform="matrix(1,0,0,1,1105,1540.25) translate(73.975 176.4)"/><use xlink:href="#ae" transform="matrix(1,0,0,1,1105,1540.25) translate(26.099999999999994 198)"/><path d="M880 1146c0-2.76 2.24-5 5-5h150c2.76 0 5 2.24 5 5v151.2c0 2.76-2.24 5-5 5H885c-2.76 0-5-2.24-5-5z" stroke="#c92d39" stroke-width="5" fill="#fff"/><use xlink:href="#af" transform="matrix(1,0,0,1,885,1146) translate(4.099999999999994 14.800000000000006)"/><use xlink:href="#ag" transform="matrix(1,0,0,1,885,1146) translate(52 14.800000000000006)"/><use xlink:href="#ah" transform="matrix(1,0,0,1,885,1146) translate(5.674999999999997 36.400000000000006)"/><use xlink:href="#ai" transform="matrix(1,0,0,1,885,1146) translate(48.525 36.400000000000006)"/><use xlink:href="#p" transform="matrix(1,0,0,1,885,1146) translate(75 58.00000000000001)"/><use xlink:href="#aj" transform="matrix(1,0,0,1,885,1146) translate(36.099999999999994 79.60000000000002)"/><use xlink:href="#ak" transform="matrix(1,0,0,1,885,1146) translate(28.599999999999994 101.20000000000002)"/><use xlink:href="#p" transform="matrix(1,0,0,1,885,1146) translate(75 122.80000000000001)"/><use xlink:href="#al" transform="matrix(1,0,0,1,885,1146) translate(7.6499999999999915 144.4)"/><use xlink:href="#am" transform="matrix(1,0,0,1,885,1146) translate(71.4 144.4)"/><path d="M82 1785c0-2.76 2.24-5 5-5h299c2.76 0 5 2.24 5 5v450c0 2.76-2.24 5-5 5H87c-2.76 0-5-2.24-5-5z" stroke="#666" stroke-width="2" fill="#fff"/><path d="M158 1805c0-2.76 2.24-5 5-5h150c2.76 0 5 2.24 5 5v110c0 2.76-2.24 5-5 5H163c-2.76 0-5-2.24-5-5z" stroke="#666" stroke-width="5" fill="#fff"/><use xlink:href="#an" transform="matrix(1,0,0,1,163,1805) translate(24.624999999999993 47.8)"/><use xlink:href="#ao" transform="matrix(1,0,0,1,163,1805) translate(109.42500000000001 47.8)"/><use xlink:href="#ap" transform="matrix(1,0,0,1,163,1805) translate(52.025 69.4)"/><path d="M162 1965c0-2.76 2.24-5 5-5h150c2.76 0 5 2.24 5 5v110c0 2.76-2.24 5-5 5H167c-2.76 0-5-2.24-5-5z" stroke="#e0b036" stroke-width="6" fill="#fff"/><use xlink:href="#aq" transform="matrix(1,0,0,1,167,1965) translate(75 60.4)"/><path d="M162 2105c0-2.76 2.24-5 5-5h150c2.76 0 5 2.24 5 5v110c0 2.76-2.24 5-5 5H167c-2.76 0-5-2.24-5-5z" stroke="#1a4982" stroke-width="5" fill="#fff"/><use xlink:href="#ar" transform="matrix(1,0,0,1,167,2105) translate(53.4 58.6)"/><path d="M729.53 1084h69.74c2.76 0 5 2.24 5 5v91c0 2.76 2.23 5 5 5H879" stroke="#999" stroke-width="2" fill="none"/><path d="M729.53 1085H727l.05-2h2.48zM879 1185l-14.27 4.64v-9.28z" fill="#999"/><path d="M880 1184.27v1.46l-16.27 5.28v-12zm-14.27 4l10.03-3.27-10.03-3.26z" fill="#999"/><path fill="#fff" d="M783.3 1081.4h41.95v43.2H783.3z"/><use xlink:href="#as" transform="matrix(1,0,0,1,783.2907442943753,1081.4078810918454) translate(0.004999999999999005 14.4)"/><use xlink:href="#at" transform="matrix(1,0,0,1,783.2907442943753,1081.4078810918454) translate(0.004999999999999005 36)"/><path d="M1041 1270.33h44c2.76 0 5 2.24 5 5v105.38c0 2.78 2.24 5 5 5h44" stroke="#999" stroke-width="2" fill="none"/><path d="M1041 1271.33h-1v-2h1zM1139 1385.7l-14.27 4.65v-9.27z" fill="#999"/><path d="M1140 1385v1.44l-16.27 5.3v-12.04zm-14.27 3.97l10.03-3.26-10.03-3.24z" fill="#999"/><path d="M1041 1270.33h24.18c2.76 0 5 2.24 5 5v343.92c0 2.76 2.24 5 5 5h24.18" stroke="#999" stroke-width="2" fill="none"/><path d="M1041 1271.33h-1v-2h1zM1099.36 1624.25l-14.27 4.63v-9.27z" fill="#999"/><path d="M1100.53 1623.58l-.03 1.35-16.4 5.33v-12.02zm-14.44 3.93l10.02-3.25-10.03-3.26z" fill="#999"/><path d="M1470.25 1359.5c0-2.77 2.24-5 5-5h125.2c2.76 0 5 2.23 5 5v109.46c0 2.77-2.24 5-5 5h-125.2c-2.76 0-5-2.23-5-5z" stroke="#c92d39" stroke-width="5" fill="#fff"/><use xlink:href="#au" transform="matrix(1,0,0,1,1475.251982144758,1359.4903508771931) translate(19.549999999999997 58.6)"/><use xlink:href="#av" transform="matrix(1,0,0,1,1475.251982144758,1359.4903508771931) translate(76.5 58.6)"/><path d="M1470.25 1593.46c0-2.76 2.24-5 5-5h125.2c2.76 0 5 2.24 5 5v109.47c0 2.76-2.24 5-5 5h-125.2c-2.76 0-5-2.24-5-5z" stroke="#c92d39" stroke-width="5" fill="#fff"/><use xlink:href="#aw" transform="matrix(1,0,0,1,1475.251982144758,1593.4596491228071) translate(7.574999999999996 58.6)"/><use xlink:href="#av" transform="matrix(1,0,0,1,1475.251982144758,1593.4596491228071) translate(88.475 58.6)"/><path d="M1470.25 1857.3c0-2.76 2.24-5 5-5h125.2c2.76 0 5 2.24 5 5v109.47c0 2.76-2.24 5-5 5h-125.2c-2.76 0-5-2.24-5-5z" stroke="#c92d39" stroke-width="5" fill="#fff"/><use xlink:href="#ax" transform="matrix(1,0,0,1,1475.251982144758,1857.2973684210529) translate(17.124999999999993 26.19999999999999)"/><use xlink:href="#ay" transform="matrix(1,0,0,1,1475.251982144758,1857.2973684210529) translate(23.549999999999997 47.79999999999999)"/><use xlink:href="#az" transform="matrix(1,0,0,1,1475.251982144758,1857.2973684210529) translate(15.649999999999991 69.39999999999999)"/><use xlink:href="#aA" transform="matrix(1,0,0,1,1475.251982144758,1857.2973684210529) translate(44.55 69.39999999999999)"/><use xlink:href="#aB" transform="matrix(1,0,0,1,1475.251982144758,1857.2973684210529) translate(31.599999999999994 91)"/><path d="M1537.85 1971.77v35c0 2.76-2.24 5-5 5h-46.9c-2.76 0-5 2.24-5 5v129.2c0 2.77 2.24 5 5 5h35" stroke="#999" stroke-width="2" fill="none"/><path d="M1520.95 2150.98l-14.27 4.64v-9.27z" fill="#999"/><path d="M1520.95 2149.93v2.1l-15.27 4.96v-12.03zm-13.27 4.3l10.03-3.25-10.02-3.26z" fill="#999"/><path d="M1283 1648h93.1c.06 0 .1.04.1.1 0 .05.05.1.1.1h93.1" stroke="#999" stroke-width="2" fill="none"/><path d="M1283 1649h-.02l.02-1v-1zM1469.4 1648.2l-14.26 4.63v-9.27z" fill="#999"/><path d="M1470.25 1647.42v1.55l-16.1 5.24v-12.02zm-14.1 4.04l10.02-3.26-10.03-3.26z" fill="#999"/><path fill="#fff" d="M1367.43 1615.8h41.96v64.8h-41.97z"/><use xlink:href="#as" transform="matrix(1,0,0,1,1367.4258390433838,1615.7964912280702) translate(0.004999999999999005 14.4)"/><use xlink:href="#aC" transform="matrix(1,0,0,1,1367.4258390433838,1615.7964912280702) translate(0.004999999999999005 36)"/><use xlink:href="#aD" transform="matrix(1,0,0,1,1367.4258390433838,1615.7964912280702) translate(2.0549999999999997 57.6)"/><path d="M1270 1400h94.7c2.76 0 5 2.24 5 5v4.23c0 2.76 2.24 5 5 5h94.7" stroke="#999" stroke-width="2" fill="none"/><path d="M1284.27 1404.64L1270 1400l14.27-4.64z" fill="#999"/><path d="M1285.27 1406l-15.27-4.95v-2.1l15.27-4.96zm-12.03-6l10.03 3.26v-6.52zM1469.4 1414.23l-14.26 4.63v-9.27z" fill="#999"/><path d="M1470.25 1413.45v1.55l-16.1 5.24v-12.02zm-14.1 4.04l10.02-3.27-10.03-3.26z" fill="#999"/><path d="M1537.85 1473.96v113.5" stroke="#999" stroke-width="2" fill="none"/><path d="M1537.85 1587.46l-4.64-14.26h9.3z" fill="#999"/><path d="M1538.58 1588.46h-1.46l-5.28-16.26h12.02zm-4-14.26l3.27 10.03 3.26-10.03z" fill="#999"/><path fill="#fff" d="M1471.45 1519.9h132.8v21.6h-132.8z"/><g><use xlink:href="#n" transform="matrix(1,0,0,1,1471.4497368832776,1519.9140350877194) translate(0.0049999999999954525 14.4)"/><use xlink:href="#aE" transform="matrix(1,0,0,1,1471.4497368832776,1519.9140350877194) translate(43.905 14.4)"/><use xlink:href="#aF" transform="matrix(1,0,0,1,1471.4497368832776,1519.9140350877194) translate(92.805 14.4)"/></g><path d="M1537.85 1707.93v143.37" stroke="#999" stroke-width="2" fill="none"/><path d="M1537.85 1851.3l-4.64-14.26h9.3z" fill="#999"/><path d="M1538.58 1852.3h-1.46l-5.28-16.26h12.02zm-4-14.26l3.27 10.03 3.26-10.03z" fill="#999"/><path d="M1268.2 1021c8.17 0 14.8 26.86 14.8 60s-6.63 60-14.8 60h-118.4c-8.17 0-14.8-26.86-14.8-60s6.63-60 14.8-60z" stroke="#e0b036" stroke-width="5" fill="#fff"/><path d="M1268.2 1141c-8.17 0-14.8-26.86-14.8-60s6.63-60 14.8-60" stroke="#e0b036" stroke-width="5" fill="none"/><g><use xlink:href="#aG" transform="matrix(1,0,0,1,1140,1026) translate(2.5999999999999943 37)"/><use xlink:href="#aH" transform="matrix(1,0,0,1,1140,1026) translate(54.5 37)"/><use xlink:href="#aI" transform="matrix(1,0,0,1,1140,1026) translate(15.649999999999991 58.6)"/><use xlink:href="#aJ" transform="matrix(1,0,0,1,1140,1026) translate(42.54999999999999 58.6)"/><use xlink:href="#aK" transform="matrix(1,0,0,1,1140,1026) translate(18.1 80.20000000000002)"/></g><path d="M880 965c0-2.76 2.24-5 5-5h150c2.76 0 5 2.24 5 5v110c0 2.76-2.24 5-5 5H885c-2.76 0-5-2.24-5-5z" stroke="#e0b036" stroke-width="5" fill="#fff"/><g><use xlink:href="#aL" transform="matrix(1,0,0,1,885,965) translate(21.124999999999993 47.8)"/><use xlink:href="#aM" transform="matrix(1,0,0,1,885,965) translate(40.55 69.4)"/></g><path d="M731.12 920.6h69.44c2.76 0 5 2.24 5 5v89.4c0 2.76 2.24 5 5 5H880" stroke="#e0b036" stroke-width="2" fill="none"/><path d="M731.12 921.6h-2.5v-2h2.5zM880 1020l-14.27 4.64v-9.28z" fill="#e0b036"/><path d="M880 1018.95v2.1l-15.27 4.96v-12zm-13.27 4.3l10.03-3.25-10.03-3.26z" fill="#e0b036"/><path d="M1040 1020h41.6c2.77 0 5 2.24 5 5v30.57c0 2.76 2.25 5 5 5h41.63" stroke="#e0b036" stroke-width="2" fill="none"/><path d="M1133.23 1060.57l-14.27 4.64v-9.26z" fill="#e0b036"/><path d="M1135.94 1060.4l-.04.35-17.94 5.83v-12.02zm-15.98 3.43l10.03-3.26-10.04-3.26z" fill="#e0b036"/><path d="M1134.1 1108.13h-40.8c-2.76 0-5 2.24-5 5v56.2c0 2.76-2.24 5-5 5h-40.8" stroke="#e0b036" stroke-width="2" fill="none"/><path d="M1136.85 1109.13h-2.75v-2h2.53zM1056.77 1178.97l-14.27-4.64 14.27-4.63z" fill="#e0b036"/><path d="M1057.77 1180.35l-17.77-5.78v-.48l17.77-5.78zm-12.03-6.02l10.03 3.26v-6.53z" fill="#e0b036"/><path d="M1520.95 2096.24c0-2.76 2.24-5 5-5h125.2c2.76 0 5 2.24 5 5v109.48c0 2.76-2.24 5-5 5h-125.2c-2.76 0-5-2.24-5-5z" stroke="#1a4982" stroke-width="5" fill="#fff"/><g><use xlink:href="#aN" transform="matrix(1,0,0,1,1525.9502981986477,2096.2447368421053) translate(23.074999999999996 47.8)"/><use xlink:href="#aO" transform="matrix(1,0,0,1,1525.9502981986477,2096.2447368421053) translate(12.549999999999997 69.4)"/></g><path d="M210 480c17.67 0 32 17.9 32 40s-14.33 40-32 40h-96c-17.67 0-32-17.9-32-40s14.33-40 32-40z" stroke="#666" stroke-width="5" fill="#ccc"/><g><use xlink:href="#aP" transform="matrix(1,0,0,1,82,480) translate(47.574999999999996 43.6)"/></g><path d="M140 430h-24.38c-2.76 0-5 2.24-5 5v42.75" stroke="#999" stroke-width="2" fill="none"/><path d="M110.62 477.75l-4.64-14.27h9.27z" fill="#999"/><path d="M110.86 480.24l-.47.06-5.8-17.82h12.03zm-3.5-15.76l3.26 10.03 3.26-10.02z" fill="#999"/><path fill="#fff" d="M61.72 452.95h97.8v21.6h-97.8z"/><g><use xlink:href="#aQ" transform="matrix(1,0,0,1,61.716717153934326,452.9495723158779) translate(0.005000000000002558 14.4)"/></g><path d="M117.67 562.5v35c0 2.76 2.24 5 5 5H235c2.76 0 5-2.24 5-5v-10c0-2.76 2.24-5 5-5h10.33c2.76 0 5-2.24 5-5v-35" stroke="#999" stroke-width="2" fill="none"/><path d="M118.67 562.5h-2V560h2zM264.97 556.77h-9.27l4.63-14.27z" fill="#999"/><path d="M266.35 557.77h-12.03L260.1 540h.47zm-9.28-2h6.52l-3.27-10.03z" fill="#999"/><path fill="#fff" d="M52.17 591.7h181.66v21.6H52.17z"/><g><use xlink:href="#aR" transform="matrix(1,0,0,1,52.17499999999998,591.7) translate(0.0049999999999954525 14.4)"/><use xlink:href="#aS" transform="matrix(1,0,0,1,52.17499999999998,591.7) translate(41.955 14.4)"/><use xlink:href="#aT" transform="matrix(1,0,0,1,52.17499999999998,591.7) translate(93.855 14.4)"/><use xlink:href="#aU" transform="matrix(1,0,0,1,52.17499999999998,591.7) translate(103.855 14.4)"/></g><path d="M280 430h178.42c2.76 0 5 2.24 5 5v31.58" stroke="#999" stroke-width="2" fill="none"/><path d="M463.42 466.58l-4.63-14.27h9.26z" fill="#999"/><path d="M463.45 469.72l-.04.04-6-18.45h12.03zm-3.3-16.4l3.27 10.02 3.26-10.03z" fill="#999"/><path fill="#fff" d="M318.74 408.4H428.6v43.2H318.74z"/><g><use xlink:href="#aV" transform="matrix(1,0,0,1,318.74166666666673,408.4) translate(0.005000000000002558 14.4)"/><use xlink:href="#aW" transform="matrix(1,0,0,1,318.74166666666673,408.4) translate(67.905 14.4)"/><use xlink:href="#aX" transform="matrix(1,0,0,1,318.74166666666673,408.4) translate(15.505000000000003 36)"/></g><path d="M1470.25 1912.03H1210c-2.76 0-5-2.23-5-5V1460" fill="none"/><path d="M1470.25 1912.03h-9.96m-9.97 0h-19.93m-9.96 0h-19.92m-9.97 0h-19.92m-9.96 0h-19.93m-9.96 0h-19.92m-9.97 0h-19.93m-9.96 0h-19.92m-9.96 0h-19.93m-9.97 0h-3.1c-1.73 0-3.13-1.4-3.13-3.1v-10.6m0-9.95v-19.93m0-9.96v-19.93m0-9.96v-19.92m0-9.96v-19.93m0-9.97v-19.92m0-9.96v-19.92m0-9.96v-19.93m0-9.96v-19.92m0-9.97v-19.92m0-9.96v-19.93m0-9.96v-19.9m0-9.98v-19.92m0-9.96v-19.93m0-9.95v-19.93m0-9.96V1460" stroke="#999" stroke-width="2" fill="none"/><path d="M1209.64 1474.27h-9.28L1205 1460z" fill="#999"/><path d="M1205 1460l1.05-.02 4.96 15.3h-12l4.96-15.32zm-3.26 13.27h6.52l-3.26-10.03z" fill="#999"/><path d="M1433.8 1279.84c0-2.76 2.25-5 5-5h226.6c2.77 0 5 2.24 5 5v30.82c0 2.76-2.23 5-5 5h-226.6c-2.75 0-5-2.24-5-5z" fill="none"/><g><use xlink:href="#aY" transform="matrix(1,0,0,1,1438.813392648929,1279.8412280701755) translate(9.149999999999977 14.4)"/><use xlink:href="#aZ" transform="matrix(1,0,0,1,1438.813392648929,1279.8412280701755) translate(66.94999999999999 14.4)"/><use xlink:href="#ba" transform="matrix(1,0,0,1,1438.813392648929,1279.8412280701755) translate(96.54999999999998 14.4)"/><use xlink:href="#bb" transform="matrix(1,0,0,1,1438.813392648929,1279.8412280701755) translate(93.05 36)"/></g><path d="M142 1945c0-2.76 2.24-5 5-5h150c2.76 0 5 2.24 5 5v110c0 2.76-2.24 5-5 5H147c-2.76 0-5-2.24-5-5z" stroke="#c92d39" stroke-width="6" fill="#fff"/><g><use xlink:href="#bc" transform="matrix(1,0,0,1,147,1945) translate(9.149999999999991 58.6)"/><use xlink:href="#bd" transform="matrix(1,0,0,1,147,1945) translate(30.099999999999994 58.6)"/></g><path d="M1574.92 528.13c6.53 0 11.83 26.74 11.83 59.73 0 33-5.3 59.74-11.83 59.74h-94.64c-6.53 0-11.83-26.75-11.83-59.74 0-33 5.3-59.73 11.83-59.73z" stroke="#666" stroke-width="5" fill="#fff"/><path d="M1574.92 647.6c-6.54 0-11.83-26.75-11.83-59.74 0-33 5.28-59.73 11.82-59.73" stroke="#666" stroke-width="5" fill="none"/><g><use xlink:href="#be" transform="matrix(1,0,0,1,1473.449719342315,533.1254385964911) translate(19.049999999999997 47.8)"/><use xlink:href="#bf" transform="matrix(1,0,0,1,1473.449719342315,533.1254385964911) translate(16.549999999999997 69.4)"/></g><path d="M1460 714.53c0-2.77 2.24-5 5-5h125.2c2.76 0 5 2.23 5 5V824c0 2.76-2.24 5-5 5H1465c-2.76 0-5-2.24-5-5z" stroke="#666" stroke-width="2" fill="#fff"/><g><use xlink:href="#bg" transform="matrix(1,0,0,1,1465,714.5263157894735) translate(23.549999999999997 58.6)"/></g><path d="M728.07 802.1h318.86c2.76 0 5-2.23 5-5V592.87c0-2.76 2.24-5 5-5h411.52" stroke="#999" stroke-width="2" fill="none"/><path d="M728.07 803.1h-2.46l-.07-2h2.54zM1468.45 587.86l-14.27 4.64v-9.27z" fill="#999"/><path d="M1468.5 586.82l-.05 1.04.03 1.04-15.3 4.97v-12.02zm-13.32 4.3l10.03-3.26-10.02-3.26z" fill="#999"/><path d="M1527.6 647.6v60.93" stroke="#999" stroke-width="2" fill="none"/><path d="M1527.6 708.53l-4.64-14.27h9.27z" fill="#999"/><path d="M1528.33 709.53h-1.46l-5.28-16.27h12zm-4-14.27l3.27 10.03 3.26-10.04z" fill="#999"/><path d="M1388 264.9c0-2.75 2.24-5 5-5h236c2.76 0 5 2.25 5 5v237.6c0 2.77-2.24 5-5 5h-236c-2.76 0-5-2.23-5-5z" fill="none"/><g><use xlink:href="#bh" transform="matrix(1,0,0,1,1393,264.9122807017545) translate(48.64999999999999 14.4)"/><use xlink:href="#bi" transform="matrix(1,0,0,1,1393,264.9122807017545) translate(118.45 14.4)"/><use xlink:href="#bj" transform="matrix(1,0,0,1,1393,264.9122807017545) translate(118 36)"/><use xlink:href="#bk" transform="matrix(1,0,0,1,1393,264.9122807017545) translate(3.7249999999999943 57.6)"/><use xlink:href="#bl" transform="matrix(1,0,0,1,1393,264.9122807017545) translate(80.575 57.6)"/><use xlink:href="#bm" transform="matrix(1,0,0,1,1393,264.9122807017545) translate(125.475 57.6)"/><use xlink:href="#bn" transform="matrix(1,0,0,1,1393,264.9122807017545) translate(167.375 57.6)"/><use xlink:href="#bo" transform="matrix(1,0,0,1,1393,264.9122807017545) translate(67.05 79.20000000000002)"/><use xlink:href="#bp" transform="matrix(1,0,0,1,1393,264.9122807017545) translate(87.05 79.20000000000002)"/><use xlink:href="#bq" transform="matrix(1,0,0,1,1393,264.9122807017545) translate(118 100.80000000000001)"/><use xlink:href="#br" transform="matrix(1,0,0,1,1393,264.9122807017545) translate(40.42500000000001 122.4)"/><use xlink:href="#bs" transform="matrix(1,0,0,1,1393,264.9122807017545) translate(105.775 122.4)"/><use xlink:href="#bt" transform="matrix(1,0,0,1,1393,264.9122807017545) translate(153.625 122.4)"/><use xlink:href="#bq" transform="matrix(1,0,0,1,1393,264.9122807017545) translate(118 144)"/><use xlink:href="#bu" transform="matrix(1,0,0,1,1393,264.9122807017545) translate(22.674999999999997 165.6)"/><use xlink:href="#bv" transform="matrix(1,0,0,1,1393,264.9122807017545) translate(66.575 165.6)"/><use xlink:href="#bw" transform="matrix(1,0,0,1,1393,264.9122807017545) translate(86.575 165.6)"/><use xlink:href="#bx" transform="matrix(1,0,0,1,1393,264.9122807017545) translate(136.525 165.6)"/><use xlink:href="#by" transform="matrix(1,0,0,1,1393,264.9122807017545) translate(179.425 165.6)"/><use xlink:href="#bz" transform="matrix(1,0,0,1,1393,264.9122807017545) translate(38.75 187.2)"/><use xlink:href="#bm" transform="matrix(1,0,0,1,1393,264.9122807017545) translate(102.65 187.2)"/><use xlink:href="#bA" transform="matrix(1,0,0,1,1393,264.9122807017545) translate(144.55 187.2)"/><use xlink:href="#bB" transform="matrix(1,0,0,1,1393,264.9122807017545) translate(118 208.79999999999998)"/><use xlink:href="#bC" transform="matrix(1,0,0,1,1393,264.9122807017545) translate(118 230.39999999999998)"/></g><path d="M1527.6 829v35c0 2.76 2.24 5 5 5h97.6c2.76 0 5-2.24 5-5V490.64c0-2.77-2.24-5-5-5h-97.6c-2.76 0-5 2.23-5 5v35" stroke="#999" stroke-width="2" fill="none"/><path d="M1527.6 525.64l-4.64-14.27h9.27z" fill="#999"/><path d="M1527.84 528.13h-.48l-5.77-17.76h12zm-3.5-15.76l3.26 10.03 3.26-10.03z" fill="#999"/><defs><path fill="#333" d="M240-174c0 40-23 61-54 70L253 0h-59l-57-94H76V0H24v-248c93 4 217-23 216 74zM76-134c48-2 112 12 112-38 0-48-66-32-112-35v73" id="bD"/><path fill="#333" d="M169-182c-1-43-94-46-97-3 18 66 151 10 154 114 3 95-165 93-204 36-6-8-10-19-12-30l50-8c3 46 112 56 116 5-17-69-150-10-154-114-4-87 153-88 188-35 5 8 8 18 10 28" id="bE"/><path fill="#333" d="M175 0L67-191c6 58 2 128 3 191H24v-248h59L193-55c-6-58-2-129-3-193h46V0h-61" id="bF"/><g id="a"><use transform="matrix(0.06172839506172839,0,0,0.06172839506172839,0,0)" xlink:href="#bD"/><use transform="matrix(0.06172839506172839,0,0,0.06172839506172839,15.987654320987653,0)" xlink:href="#bE"/><use transform="matrix(0.06172839506172839,0,0,0.06172839506172839,30.80246913580247,0)" xlink:href="#bF"/></g><path fill="#333" d="M238-95c0 69-44 99-111 99C63 4 22-25 22-93v-155h51v151c-1 38 19 59 55 60 90 1 49-130 58-211h52v153" id="bG"/><path fill="#333" d="M136-208V0H84v-208H4v-40h212v40h-80" id="bH"/><path fill="#333" d="M67-125c0 54 23 88 75 88 28 0 53-7 68-21v-34h-60v-39h108v91C232-14 192 4 140 4 58 4 20-42 15-125 8-236 126-280 215-234c19 10 29 26 37 47l-47 15c-11-23-29-39-63-39-53 1-75 33-75 86" id="bI"/><path fill="#333" d="M24 0v-248h195v40H76v63h132v40H76v65h150V0H24" id="bJ"/><g id="b"><use transform="matrix(0.06172839506172839,0,0,0.06172839506172839,0,0)" xlink:href="#bD"/><use transform="matrix(0.06172839506172839,0,0,0.06172839506172839,15.987654320987653,0)" xlink:href="#bG"/><use transform="matrix(0.06172839506172839,0,0,0.06172839506172839,31.975308641975307,0)" xlink:href="#bH"/><use transform="matrix(0.06172839506172839,0,0,0.06172839506172839,45.49382716049382,0)" xlink:href="#bI"/><use transform="matrix(0.06172839506172839,0,0,0.06172839506172839,62.77777777777777,0)" xlink:href="#bJ"/><use transform="matrix(0.06172839506172839,0,0,0.06172839506172839,77.59259259259258,0)" xlink:href="#bD"/><use transform="matrix(0.06172839506172839,0,0,0.06172839506172839,93.58024691358024,0)" xlink:href="#bE"/></g><path fill="#333" d="M4 7l51-268h42L46 7H4" id="bK"/><use transform="matrix(0.06172839506172839,0,0,0.06172839506172839,0,0)" xlink:href="#bK" id="c"/><path fill="#333" d="M67-125c0 53 21 87 73 88 37 1 54-22 65-47l45 17C233-25 199 4 140 4 58 4 20-42 15-125 8-235 124-281 211-232c18 10 29 29 36 50l-46 12c-8-25-30-41-62-41-52 0-71 34-72 86" id="bL"/><path fill="#333" d="M24 0v-248h52V0H24" id="bM"/><g id="d"><use transform="matrix(0.06172839506172839,0,0,0.06172839506172839,0,0)" xlink:href="#bL"/><use transform="matrix(0.06172839506172839,0,0,0.06172839506172839,15.987654320987653,0)" xlink:href="#bM"/></g><path fill="#333" d="M24 0v-248h52v208h133V0H24" id="bN"/><path fill="#333" d="M140-251c80 0 125 45 125 126S219 4 139 4C58 4 15-44 15-125s44-126 125-126zm-1 214c52 0 73-35 73-88 0-50-21-86-72-86-52 0-73 35-73 86s22 88 72 88" id="bO"/><path fill="#333" d="M24-248c120-7 223 5 221 122C244-46 201 0 124 0H24v-248zM76-40c74 7 117-18 117-86 0-67-45-88-117-82v168" id="bP"/><g id="e"><use transform="matrix(0.06172839506172839,0,0,0.06172839506172839,0,0)" xlink:href="#bL"/><use transform="matrix(0.06172839506172839,0,0,0.06172839506172839,15.987654320987653,0)" xlink:href="#bN"/><use transform="matrix(0.06172839506172839,0,0,0.06172839506172839,29.50617283950617,0)" xlink:href="#bO"/><use transform="matrix(0.06172839506172839,0,0,0.06172839506172839,46.79012345679012,0)" xlink:href="#bG"/><use transform="matrix(0.06172839506172839,0,0,0.06172839506172839,62.77777777777777,0)" xlink:href="#bP"/></g><path d="M24 0v-248h195v40H76v63h132v40H76v65h150V0H24" id="bQ"/><path d="M175 0L67-191c6 58 2 128 3 191H24v-248h59L193-55c-6-58-2-129-3-193h46V0h-61" id="bR"/><path d="M24-248c120-7 223 5 221 122C244-46 201 0 124 0H24v-248zM76-40c74 7 117-18 117-86 0-67-45-88-117-82v168" id="bS"/><g id="f"><use transform="matrix(0.06172839506172839,0,0,0.06172839506172839,0,0)" xlink:href="#bQ"/><use transform="matrix(0.06172839506172839,0,0,0.06172839506172839,14.814814814814813,0)" xlink:href="#bR"/><use transform="matrix(0.06172839506172839,0,0,0.06172839506172839,30.80246913580247,0)" xlink:href="#bS"/></g><path d="M238-95c0 69-44 99-111 99C63 4 22-25 22-93v-155h51v151c-1 38 19 59 55 60 90 1 49-130 58-211h52v153" id="bT"/><path d="M169-182c-1-43-94-46-97-3 18 66 151 10 154 114 3 95-165 93-204 36-6-8-10-19-12-30l50-8c3 46 112 56 116 5-17-69-150-10-154-114-4-87 153-88 188-35 5 8 8 18 10 28" id="bU"/><path d="M240-174c0 40-23 61-54 70L253 0h-59l-57-94H76V0H24v-248c93 4 217-23 216 74zM76-134c48-2 112 12 112-38 0-48-66-32-112-35v73" id="bV"/><g id="g"><use transform="matrix(0.06172839506172839,0,0,0.06172839506172839,0,0)" xlink:href="#bT"/><use transform="matrix(0.06172839506172839,0,0,0.06172839506172839,15.987654320987653,0)" xlink:href="#bU"/><use transform="matrix(0.06172839506172839,0,0,0.06172839506172839,30.80246913580247,0)" xlink:href="#bQ"/><use transform="matrix(0.06172839506172839,0,0,0.06172839506172839,45.61728395061728,0)" xlink:href="#bV"/><use transform="matrix(0.06172839506172839,0,0,0.06172839506172839,61.60493827160493,0)" xlink:href="#bU"/></g><path d="M67-93c0 74 22 123 53 168H70C40 30 18-18 18-93s22-123 52-168h50c-32 44-53 94-53 168" id="bW"/><path d="M275 0h-61l-44-196L126 0H64L0-248h53L97-49l45-199h58l43 199 44-199h52" id="bX"/><g id="h"><use transform="matrix(0.06172839506172839,0,0,0.06172839506172839,0,0)" xlink:href="#bW"/><use transform="matrix(0.06172839506172839,0,0,0.06172839506172839,7.345679012345679,0)" xlink:href="#bT"/><use transform="matrix(0.06172839506172839,0,0,0.06172839506172839,23.333333333333332,0)" xlink:href="#bX"/></g><path d="M133-34C117-15 103 5 69 4 32 3 11-16 11-54c-1-60 55-63 116-61 1-26-3-47-28-47-18 1-26 9-28 27l-52-2c7-38 36-58 82-57s74 22 75 68l1 82c-1 14 12 18 25 15v27c-30 8-71 5-69-32zm-48 3c29 0 43-24 42-57-32 0-66-3-65 30 0 17 8 27 23 27" id="bY"/><path d="M135-194c87-1 58 113 63 194h-50c-7-57 23-157-34-157-59 0-34 97-39 157H25l-1-190h47c2 12-1 28 3 38 12-26 28-41 61-42" id="bZ"/><path d="M88-194c31-1 46 15 58 34l-1-101h50l1 261h-48c-2-10 0-23-3-31C134-8 116 4 84 4 32 4 16-41 15-95c0-56 19-97 73-99zm17 164c33 0 40-30 41-66 1-37-9-64-41-64s-38 30-39 65c0 43 13 65 39 65" id="ca"/><g id="i"><use transform="matrix(0.06172839506172839,0,0,0.06172839506172839,0,0)" xlink:href="#bY"/><use transform="matrix(0.06172839506172839,0,0,0.06172839506172839,12.345679012345679,0)" xlink:href="#bZ"/><use transform="matrix(0.06172839506172839,0,0,0.06172839506172839,25.864197530864196,0)" xlink:href="#ca"/></g><path d="M25 0v-261h50V0H25" id="cb"/><path d="M137-138c1-29-70-34-71-4 15 46 118 7 119 86 1 83-164 76-172 9l43-7c4 19 20 25 44 25 33 8 57-30 24-41C81-84 22-81 20-136c-2-80 154-74 161-7" id="cc"/><path d="M185-48c-13 30-37 53-82 52C43 2 14-33 14-96s30-98 90-98c62 0 83 45 84 108H66c0 31 8 55 39 56 18 0 30-7 34-22zm-45-69c5-46-57-63-70-21-2 6-4 13-4 21h74" id="cd"/><path d="M231 0h-52l-39-155L100 0H48L-1-190h46L77-45c9-52 24-97 36-145h53l37 145 32-145h46" id="ce"/><path d="M114-157C55-157 80-60 75 0H25v-261h50l-1 109c12-26 28-41 61-42 86-1 58 113 63 194h-50c-7-57 23-157-34-157" id="cf"/><path d="M135-150c-39-12-60 13-60 57V0H25l-1-190h47c2 13-1 29 3 40 6-28 27-53 61-41v41" id="cg"/><path d="M102-93c0 74-22 123-52 168H0C30 29 54-18 53-93c0-74-22-123-53-168h50c30 45 52 94 52 168" id="ch"/><g id="j"><use transform="matrix(0.06172839506172839,0,0,0.06172839506172839,0,0)" xlink:href="#bQ"/><use transform="matrix(0.06172839506172839,0,0,0.06172839506172839,14.814814814814813,0)" xlink:href="#cb"/><use transform="matrix(0.06172839506172839,0,0,0.06172839506172839,20.98765432098765,0)" xlink:href="#cc"/><use transform="matrix(0.06172839506172839,0,0,0.06172839506172839,33.33333333333333,0)" xlink:href="#cd"/><use transform="matrix(0.06172839506172839,0,0,0.06172839506172839,45.679012345679006,0)" xlink:href="#ce"/><use transform="matrix(0.06172839506172839,0,0,0.06172839506172839,62.962962962962955,0)" xlink:href="#cf"/><use transform="matrix(0.06172839506172839,0,0,0.06172839506172839,76.48148148148147,0)" xlink:href="#cd"/><use transform="matrix(0.06172839506172839,0,0,0.06172839506172839,88.82716049382715,0)" xlink:href="#cg"/><use transform="matrix(0.06172839506172839,0,0,0.06172839506172839,97.46913580246913,0)" xlink:href="#cd"/><use transform="matrix(0.06172839506172839,0,0,0.06172839506172839,109.81481481481481,0)" xlink:href="#ch"/></g><path fill="#333" d="M185-48c-13 30-37 53-82 52C43 2 14-33 14-96s30-98 90-98c62 0 83 45 84 108H66c0 31 8 55 39 56 18 0 30-7 34-22zm-45-69c5-46-57-63-70-21-2 6-4 13-4 21h74" id="ci"/><path fill="#333" d="M190-63c-7 42-38 67-86 67-59 0-84-38-90-98-12-110 154-137 174-36l-49 2c-2-19-15-32-35-32-30 0-35 28-38 64-6 74 65 87 74 30" id="cj"/><path fill="#333" d="M110-194c64 0 96 36 96 99 0 64-35 99-97 99-61 0-95-36-95-99 0-62 34-99 96-99zm-1 164c35 0 45-28 45-65 0-40-10-65-43-65-34 0-45 26-45 65 0 36 10 65 43 65" id="ck"/><path fill="#333" d="M88-194c31-1 46 15 58 34l-1-101h50l1 261h-48c-2-10 0-23-3-31C134-8 116 4 84 4 32 4 16-41 15-95c0-56 19-97 73-99zm17 164c33 0 40-30 41-66 1-37-9-64-41-64s-38 30-39 65c0 43 13 65 39 65" id="cl"/><g id="k"><use transform="matrix(0.05,0,0,0.05,0,0)" xlink:href="#bP"/><use transform="matrix(0.05,0,0,0.05,12.950000000000001,0)" xlink:href="#ci"/><use transform="matrix(0.05,0,0,0.05,22.950000000000003,0)" xlink:href="#cj"/><use transform="matrix(0.05,0,0,0.05,32.95,0)" xlink:href="#ck"/><use transform="matrix(0.05,0,0,0.05,43.900000000000006,0)" xlink:href="#cl"/><use transform="matrix(0.05,0,0,0.05,54.85,0)" xlink:href="#ci"/></g><path fill="#333" d="M220-157c-53 9-28 100-34 157h-49v-107c1-27-5-49-29-50C55-147 81-57 75 0H25l-1-190h47c2 12-1 28 3 38 10-53 101-56 108 0 13-22 24-43 59-42 82 1 51 116 57 194h-49v-107c-1-25-5-48-29-50" id="cm"/><path fill="#333" d="M135-194c53 0 70 44 70 98 0 56-19 98-73 100-31 1-45-17-59-34 3 33 2 69 2 105H25l-1-265h48c2 10 0 23 3 31 11-24 29-35 60-35zM114-30c33 0 39-31 40-66 0-38-9-64-40-64-56 0-55 130 0 130" id="cn"/><path fill="#333" d="M85 4C-2 5 27-109 22-190h50c7 57-23 150 33 157 60-5 35-97 40-157h50l1 190h-47c-2-12 1-28-3-38-12 25-28 42-61 42" id="co"/><path fill="#333" d="M115-3C79 11 28 4 28-45v-112H4v-33h27l15-45h31v45h36v33H77v99c-1 23 16 31 38 25v30" id="cp"/><path fill="#333" d="M135-150c-39-12-60 13-60 57V0H25l-1-190h47c2 13-1 29 3 40 6-28 27-53 61-41v41" id="cq"/><g id="l"><use transform="matrix(0.05,0,0,0.05,0,0)" xlink:href="#bL"/><use transform="matrix(0.05,0,0,0.05,12.950000000000001,0)" xlink:href="#ck"/><use transform="matrix(0.05,0,0,0.05,23.900000000000002,0)" xlink:href="#cm"/><use transform="matrix(0.05,0,0,0.05,39.900000000000006,0)" xlink:href="#cn"/><use transform="matrix(0.05,0,0,0.05,50.85000000000001,0)" xlink:href="#co"/><use transform="matrix(0.05,0,0,0.05,61.80000000000001,0)" xlink:href="#cp"/><use transform="matrix(0.05,0,0,0.05,67.75000000000001,0)" xlink:href="#ci"/><use transform="matrix(0.05,0,0,0.05,77.75000000000001,0)" xlink:href="#cq"/></g><path fill="#333" d="M67-93c0 74 22 123 53 168H70C40 30 18-18 18-93s22-123 52-168h50c-32 44-53 94-53 168" id="cr"/><path fill="#333" d="M24-248c93 1 206-16 204 79-1 75-69 88-152 82V0H24v-248zm52 121c47 0 100 7 100-41 0-47-54-39-100-39v80" id="cs"/><path fill="#333" d="M25 0v-261h50V0H25" id="ct"/><path fill="#333" d="M133-34C117-15 103 5 69 4 32 3 11-16 11-54c-1-60 55-63 116-61 1-26-3-47-28-47-18 1-26 9-28 27l-52-2c7-38 36-58 82-57s74 22 75 68l1 82c-1 14 12 18 25 15v27c-30 8-71 5-69-32zm-48 3c29 0 43-24 42-57-32 0-66-3-65 30 0 17 8 27 23 27" id="cu"/><path fill="#333" d="M135-194c87-1 58 113 63 194h-50c-7-57 23-157-34-157-59 0-34 97-39 157H25l-1-190h47c2 12-1 28 3 38 12-26 28-41 61-42" id="cv"/><path fill="#333" d="M102-93c0 74-22 123-52 168H0C30 29 54-18 53-93c0-74-22-123-53-168h50c30 45 52 94 52 168" id="cw"/><g id="m"><use transform="matrix(0.05,0,0,0.05,0,0)" xlink:href="#cr"/><use transform="matrix(0.05,0,0,0.05,5.95,0)" xlink:href="#cs"/><use transform="matrix(0.05,0,0,0.05,17.95,0)" xlink:href="#ck"/><use transform="matrix(0.05,0,0,0.05,28.899999999999995,0)" xlink:href="#cq"/><use transform="matrix(0.05,0,0,0.05,35.9,0)" xlink:href="#cp"/><use transform="matrix(0.05,0,0,0.05,41.85,0)" xlink:href="#ct"/><use transform="matrix(0.05,0,0,0.05,46.85,0)" xlink:href="#cu"/><use transform="matrix(0.05,0,0,0.05,56.85,0)" xlink:href="#cv"/><use transform="matrix(0.05,0,0,0.05,67.8,0)" xlink:href="#cl"/><use transform="matrix(0.05,0,0,0.05,78.75,0)" xlink:href="#cw"/></g><g id="n"><use transform="matrix(0.05,0,0,0.05,0,0)" xlink:href="#bP"/><use transform="matrix(0.05,0,0,0.05,12.950000000000001,0)" xlink:href="#cu"/><use transform="matrix(0.05,0,0,0.05,22.950000000000003,0)" xlink:href="#cp"/><use transform="matrix(0.05,0,0,0.05,28.900000000000002,0)" xlink:href="#cu"/></g><g id="o"><use transform="matrix(0.05,0,0,0.05,0,0)" xlink:href="#cs"/><use transform="matrix(0.05,0,0,0.05,12,0)" xlink:href="#ck"/><use transform="matrix(0.05,0,0,0.05,22.950000000000003,0)" xlink:href="#cq"/><use transform="matrix(0.05,0,0,0.05,29.950000000000003,0)" xlink:href="#cp"/><use transform="matrix(0.05,0,0,0.05,35.900000000000006,0)" xlink:href="#cu"/><use transform="matrix(0.05,0,0,0.05,45.900000000000006,0)" xlink:href="#ct"/></g><path fill="#333" d="M230 0l2-204L168 0h-37L68-204 70 0H24v-248h70l56 185 57-185h69V0h-46" id="cx"/><path fill="#333" d="M25-224v-37h50v37H25zM25 0v-190h50V0H25" id="cy"/><path fill="#333" d="M114-157C55-157 80-60 75 0H25v-261h50l-1 109c12-26 28-41 61-42 86-1 58 113 63 194h-50c-7-57 23-157-34-157" id="cz"/><g id="q"><use transform="matrix(0.05,0,0,0.05,0,0)" xlink:href="#cx"/><use transform="matrix(0.05,0,0,0.05,14.950000000000001,0)" xlink:href="#ck"/><use transform="matrix(0.05,0,0,0.05,25.900000000000002,0)" xlink:href="#cv"/><use transform="matrix(0.05,0,0,0.05,36.85,0)" xlink:href="#ck"/><use transform="matrix(0.05,0,0,0.05,47.800000000000004,0)" xlink:href="#ct"/><use transform="matrix(0.05,0,0,0.05,52.800000000000004,0)" xlink:href="#cy"/><use transform="matrix(0.05,0,0,0.05,57.800000000000004,0)" xlink:href="#cp"/><use transform="matrix(0.05,0,0,0.05,63.75,0)" xlink:href="#cz"/><use transform="matrix(0.05,0,0,0.05,74.7,0)" xlink:href="#cy"/><use transform="matrix(0.05,0,0,0.05,79.7,0)" xlink:href="#cj"/></g><path fill="#333" d="M24 0v-54h51V0H24" id="cA"/><path fill="#333" d="M128 0H69L1-190h53L99-40l48-150h52" id="cB"/><g id="r"><use transform="matrix(0.05,0,0,0.05,0,0)" xlink:href="#cA"/><use transform="matrix(0.05,0,0,0.05,5,0)" xlink:href="#cm"/><use transform="matrix(0.05,0,0,0.05,21,0)" xlink:href="#ck"/><use transform="matrix(0.05,0,0,0.05,31.950000000000003,0)" xlink:href="#cB"/></g><path fill="#333" d="M23 0v-37h61v-169l-59 37v-38l62-41h46v211h57V0H23" id="cC"/><path fill="#333" d="M165-50V0h-47v-50H5v-38l105-160h55v161h33v37h-33zm-47-37l2-116L46-87h72" id="cD"/><path fill="#333" d="M182-130c37 4 62 22 62 59C244 23 116-4 24 0v-248c84 5 203-23 205 63 0 31-19 50-47 55zM76-148c40-3 101 13 101-30 0-44-60-28-101-31v61zm0 110c48-3 116 14 116-37 0-48-69-32-116-35v72" id="cE"/><g id="s"><use transform="matrix(0.05,0,0,0.05,0,0)" xlink:href="#cr"/><use transform="matrix(0.05,0,0,0.05,5.95,0)" xlink:href="#cC"/><use transform="matrix(0.05,0,0,0.05,15.949999999999998,0)" xlink:href="#cD"/><use transform="matrix(0.05,0,0,0.05,25.950000000000003,0)" xlink:href="#bI"/><use transform="matrix(0.05,0,0,0.05,39.95,0)" xlink:href="#cE"/><use transform="matrix(0.05,0,0,0.05,52.900000000000006,0)" xlink:href="#cw"/></g><g id="t"><use transform="matrix(0.05,0,0,0.05,0,0)" xlink:href="#cu"/><use transform="matrix(0.05,0,0,0.05,10,0)" xlink:href="#cv"/><use transform="matrix(0.05,0,0,0.05,20.950000000000003,0)" xlink:href="#cl"/></g><g id="u"><use transform="matrix(0.05,0,0,0.05,0,0)" xlink:href="#cA"/><use transform="matrix(0.05,0,0,0.05,5,0)" xlink:href="#cm"/><use transform="matrix(0.05,0,0,0.05,21,0)" xlink:href="#cn"/><use transform="matrix(0.05,0,0,0.05,31.950000000000003,0)" xlink:href="#cD"/></g><path fill="#333" d="M121-226c-27-7-43 5-38 36h38v33H83V0H34v-157H6v-33h28c-9-59 32-81 87-68v32" id="cF"/><path fill="#333" d="M137-138c1-29-70-34-71-4 15 46 118 7 119 86 1 83-164 76-172 9l43-7c4 19 20 25 44 25 33 8 57-30 24-41C81-84 22-81 20-136c-2-80 154-74 161-7" id="cG"/><g id="v"><use transform="matrix(0.05,0,0,0.05,0,0)" xlink:href="#cF"/><use transform="matrix(0.05,0,0,0.05,5.95,0)" xlink:href="#cy"/><use transform="matrix(0.05,0,0,0.05,10.95,0)" xlink:href="#ct"/><use transform="matrix(0.05,0,0,0.05,15.949999999999998,0)" xlink:href="#ci"/><use transform="matrix(0.05,0,0,0.05,25.950000000000003,0)" xlink:href="#cG"/></g><path fill="#333" d="M138-131c27 9 52 24 51 61 0 53-36 74-89 74S11-19 11-69c0-35 22-54 51-61-78-25-46-121 38-121 51 0 83 19 83 66 0 30-18 49-45 54zm-38-16c24 0 32-13 32-36 1-23-11-34-32-34-22 0-33 12-32 34 0 22 9 36 32 36zm1 116c27 0 37-17 37-43 0-25-13-39-39-39-24 0-37 15-37 40 0 27 11 42 39 42" id="cH"/><path fill="#333" d="M101-251c68 0 84 54 84 127C185-50 166 4 99 4S15-52 14-124c-1-75 17-127 87-127zm-1 216c37-5 36-46 36-89s4-89-36-89c-39 0-36 45-36 89 0 43-3 85 36 89" id="cI"/><g id="w"><use transform="matrix(0.05,0,0,0.05,0,0)" xlink:href="#cr"/><use transform="matrix(0.05,0,0,0.05,5.95,0)" xlink:href="#cH"/><use transform="matrix(0.05,0,0,0.05,15.949999999999998,0)" xlink:href="#cI"/><use transform="matrix(0.05,0,0,0.05,25.950000000000003,0)" xlink:href="#cI"/><use transform="matrix(0.05,0,0,0.05,35.95,0)" xlink:href="#cx"/><use transform="matrix(0.05,0,0,0.05,50.900000000000006,0)" xlink:href="#cE"/><use transform="matrix(0.05,0,0,0.05,63.85,0)" xlink:href="#cw"/></g><path fill="#333" d="M186 0v-106H76V0H24v-248h52v99h110v-99h50V0h-50" id="cJ"/><g id="x"><use transform="matrix(0.05,0,0,0.05,0,0)" xlink:href="#cJ"/><use transform="matrix(0.05,0,0,0.05,12.950000000000001,0)" xlink:href="#bH"/><use transform="matrix(0.05,0,0,0.05,23.900000000000002,0)" xlink:href="#bH"/><use transform="matrix(0.05,0,0,0.05,34.85,0)" xlink:href="#cs"/></g><g id="y"><use transform="matrix(0.05,0,0,0.05,0,0)" xlink:href="#cu"/><use transform="matrix(0.05,0,0,0.05,10,0)" xlink:href="#cj"/><use transform="matrix(0.05,0,0,0.05,20,0)" xlink:href="#cj"/><use transform="matrix(0.05,0,0,0.05,30,0)" xlink:href="#ci"/><use transform="matrix(0.05,0,0,0.05,40,0)" xlink:href="#cG"/><use transform="matrix(0.05,0,0,0.05,50,0)" xlink:href="#cG"/></g><g id="z"><use transform="matrix(0.05,0,0,0.05,0,0)" xlink:href="#cr"/><use transform="matrix(0.05,0,0,0.05,5.95,0)" xlink:href="#cv"/><use transform="matrix(0.05,0,0,0.05,16.900000000000002,0)" xlink:href="#ck"/></g><g id="A"><use transform="matrix(0.05,0,0,0.05,0,0)" xlink:href="#cm"/><use transform="matrix(0.05,0,0,0.05,16,0)" xlink:href="#ci"/><use transform="matrix(0.05,0,0,0.05,26,0)" xlink:href="#cp"/><use transform="matrix(0.05,0,0,0.05,31.950000000000003,0)" xlink:href="#cu"/><use transform="matrix(0.05,0,0,0.05,41.95,0)" xlink:href="#cl"/><use transform="matrix(0.05,0,0,0.05,52.900000000000006,0)" xlink:href="#cu"/><use transform="matrix(0.05,0,0,0.05,62.900000000000006,0)" xlink:href="#cp"/><use transform="matrix(0.05,0,0,0.05,68.85000000000001,0)" xlink:href="#cu"/></g><path fill="#333" d="M135-194c52 0 70 43 70 98 0 56-19 99-73 100-30 1-46-15-58-35L72 0H24l1-261h50v104c11-23 29-37 60-37zM114-30c31 0 40-27 40-66 0-37-7-63-39-63s-41 28-41 65c0 36 8 64 40 64" id="cK"/><g id="B"><use transform="matrix(0.05,0,0,0.05,0,0)" xlink:href="#cu"/><use transform="matrix(0.05,0,0,0.05,10,0)" xlink:href="#cB"/><use transform="matrix(0.05,0,0,0.05,20,0)" xlink:href="#cu"/><use transform="matrix(0.05,0,0,0.05,30,0)" xlink:href="#cy"/><use transform="matrix(0.05,0,0,0.05,35,0)" xlink:href="#ct"/><use transform="matrix(0.05,0,0,0.05,40,0)" xlink:href="#cu"/><use transform="matrix(0.05,0,0,0.05,50,0)" xlink:href="#cK"/><use transform="matrix(0.05,0,0,0.05,60.95,0)" xlink:href="#ct"/><use transform="matrix(0.05,0,0,0.05,65.95,0)" xlink:href="#ci"/></g><g id="C"><use transform="matrix(0.05,0,0,0.05,0,0)" xlink:href="#cu"/><use transform="matrix(0.05,0,0,0.05,10,0)" xlink:href="#cp"/></g><g id="D"><use transform="matrix(0.05,0,0,0.05,0,0)" xlink:href="#cn"/><use transform="matrix(0.05,0,0,0.05,10.950000000000001,0)" xlink:href="#cq"/><use transform="matrix(0.05,0,0,0.05,17.950000000000003,0)" xlink:href="#ci"/><use transform="matrix(0.05,0,0,0.05,27.950000000000003,0)" xlink:href="#cG"/><use transform="matrix(0.05,0,0,0.05,37.95,0)" xlink:href="#ci"/><use transform="matrix(0.05,0,0,0.05,47.95,0)" xlink:href="#cv"/><use transform="matrix(0.05,0,0,0.05,58.900000000000006,0)" xlink:href="#cp"/><use transform="matrix(0.05,0,0,0.05,64.85000000000001,0)" xlink:href="#cw"/></g><path fill="#333" d="M76-208v77h127v40H76V0H24v-248h183v40H76" id="cL"/><path fill="#333" d="M12 0v-35l95-120H19v-35h142v35L67-36h103V0H12" id="cM"/><g id="E"><use transform="matrix(0.05,0,0,0.05,0,0)" xlink:href="#cr"/><use transform="matrix(0.05,0,0,0.05,5.95,0)" xlink:href="#cL"/><use transform="matrix(0.05,0,0,0.05,16.900000000000002,0)" xlink:href="#co"/><use transform="matrix(0.05,0,0,0.05,27.85,0)" xlink:href="#cM"/><use transform="matrix(0.05,0,0,0.05,36.85,0)" xlink:href="#cM"/><use transform="matrix(0.05,0,0,0.05,45.85,0)" xlink:href="#cy"/><use transform="matrix(0.05,0,0,0.05,50.85,0)" xlink:href="#cv"/><use transform="matrix(0.05,0,0,0.05,61.800000000000004,0)" xlink:href="#ci"/><use transform="matrix(0.05,0,0,0.05,71.80000000000001,0)" xlink:href="#cG"/><use transform="matrix(0.05,0,0,0.05,81.80000000000001,0)" xlink:href="#cG"/><use transform="matrix(0.05,0,0,0.05,91.80000000000001,0)" xlink:href="#cw"/></g><g id="F"><use transform="matrix(0.05,0,0,0.05,0,0)" xlink:href="#bM"/><use transform="matrix(0.05,0,0,0.05,5,0)" xlink:href="#cv"/><use transform="matrix(0.05,0,0,0.05,15.950000000000001,0)" xlink:href="#cp"/><use transform="matrix(0.05,0,0,0.05,21.900000000000002,0)" xlink:href="#ci"/><use transform="matrix(0.05,0,0,0.05,31.900000000000002,0)" xlink:href="#cq"/><use transform="matrix(0.05,0,0,0.05,38.900000000000006,0)" xlink:href="#cv"/><use transform="matrix(0.05,0,0,0.05,49.85000000000001,0)" xlink:href="#cu"/><use transform="matrix(0.05,0,0,0.05,59.85,0)" xlink:href="#ct"/></g><g id="G"><use transform="matrix(0.05,0,0,0.05,0,0)" xlink:href="#cs"/><use transform="matrix(0.05,0,0,0.05,12,0)" xlink:href="#ck"/><use transform="matrix(0.05,0,0,0.05,22.950000000000003,0)" xlink:href="#cG"/><use transform="matrix(0.05,0,0,0.05,32.95,0)" xlink:href="#cp"/></g><path fill="#333" d="M195-6C206 82 75 100 31 46c-4-6-6-13-8-21l49-6c3 16 16 24 34 25 40 0 42-37 40-79-11 22-30 35-61 35-53 0-70-43-70-97 0-56 18-96 73-97 30 0 46 14 59 34l2-30h47zm-90-29c32 0 41-27 41-63 0-35-9-62-40-62-32 0-39 29-40 63 0 36 9 62 39 62" id="cN"/><g id="H"><use transform="matrix(0.05,0,0,0.05,0,0)" xlink:href="#cs"/><use transform="matrix(0.05,0,0,0.05,12,0)" xlink:href="#cq"/><use transform="matrix(0.05,0,0,0.05,19,0)" xlink:href="#ck"/><use transform="matrix(0.05,0,0,0.05,29.950000000000003,0)" xlink:href="#cj"/><use transform="matrix(0.05,0,0,0.05,39.95,0)" xlink:href="#ci"/><use transform="matrix(0.05,0,0,0.05,49.95,0)" xlink:href="#cG"/><use transform="matrix(0.05,0,0,0.05,59.95,0)" xlink:href="#cG"/><use transform="matrix(0.05,0,0,0.05,69.95,0)" xlink:href="#cy"/><use transform="matrix(0.05,0,0,0.05,74.95,0)" xlink:href="#cv"/><use transform="matrix(0.05,0,0,0.05,85.9,0)" xlink:href="#cN"/></g><g id="I"><use transform="matrix(0.05,0,0,0.05,0,0)" xlink:href="#cr"/><use transform="matrix(0.05,0,0,0.05,5.95,0)" xlink:href="#ci"/><use transform="matrix(0.05,0,0,0.05,15.949999999999998,0)" xlink:href="#cA"/><use transform="matrix(0.05,0,0,0.05,20.95,0)" xlink:href="#cN"/><use transform="matrix(0.05,0,0,0.05,31.899999999999995,0)" xlink:href="#cA"/></g><g id="J"><use transform="matrix(0.05,0,0,0.05,0,0)" xlink:href="#cs"/><use transform="matrix(0.05,0,0,0.05,12,0)" xlink:href="#cq"/><use transform="matrix(0.05,0,0,0.05,19,0)" xlink:href="#ck"/><use transform="matrix(0.05,0,0,0.05,29.950000000000003,0)" xlink:href="#bD"/><use transform="matrix(0.05,0,0,0.05,42.900000000000006,0)" xlink:href="#ci"/><use transform="matrix(0.05,0,0,0.05,52.900000000000006,0)" xlink:href="#cG"/></g><g id="K"><use transform="matrix(0.05,0,0,0.05,0,0)" xlink:href="#cA"/><use transform="matrix(0.05,0,0,0.05,5,0)" xlink:href="#cm"/><use transform="matrix(0.05,0,0,0.05,21,0)" xlink:href="#ck"/><use transform="matrix(0.05,0,0,0.05,31.950000000000003,0)" xlink:href="#cB"/></g><path fill="#333" d="M14-72v-43h91v43H14" id="cO"/><path fill="#333" d="M15-22v-40l146-57-146-57v-40l181 69v56" id="cP"/><g id="L"><use transform="matrix(0.05,0,0,0.05,0,0)" xlink:href="#cO"/><use transform="matrix(0.05,0,0,0.05,5.95,0)" xlink:href="#cP"/></g><path fill="#333" d="M182-182c0 78-84 86-111 141h115V0H12c-6-101 99-100 120-180 1-22-12-31-33-32-23 0-32 14-35 34l-49-3c5-45 32-70 84-70 51 0 83 22 83 69" id="cQ"/><path fill="#333" d="M115-159c48 0 72 30 72 78 0 54-30 85-83 85-64 0-91-50-91-122 0-98 58-163 141-120 15 8 21 24 27 44l-47 6c-5-31-48-31-61-4-7 14-11 33-11 60 9-17 28-27 53-27zM102-35c24 0 36-20 36-45s-11-43-37-43c-23 0-36 14-36 38 0 27 11 50 37 50" id="cR"/><g id="M"><use transform="matrix(0.05,0,0,0.05,0,0)" xlink:href="#cJ"/><use transform="matrix(0.05,0,0,0.05,12.950000000000001,0)" xlink:href="#cQ"/><use transform="matrix(0.05,0,0,0.05,22.950000000000003,0)" xlink:href="#cR"/><use transform="matrix(0.05,0,0,0.05,32.95,0)" xlink:href="#cD"/></g><g id="N"><use transform="matrix(0.05,0,0,0.05,0,0)" xlink:href="#cm"/><use transform="matrix(0.05,0,0,0.05,16,0)" xlink:href="#cn"/><use transform="matrix(0.05,0,0,0.05,26.950000000000003,0)" xlink:href="#cD"/></g><g id="O"><use transform="matrix(0.05,0,0,0.05,0,0)" xlink:href="#cp"/><use transform="matrix(0.05,0,0,0.05,5.95,0)" xlink:href="#cq"/><use transform="matrix(0.05,0,0,0.05,12.949999999999998,0)" xlink:href="#cu"/><use transform="matrix(0.05,0,0,0.05,22.95,0)" xlink:href="#cv"/><use transform="matrix(0.05,0,0,0.05,33.9,0)" xlink:href="#cG"/><use transform="matrix(0.05,0,0,0.05,43.9,0)" xlink:href="#cj"/><use transform="matrix(0.05,0,0,0.05,53.900000000000006,0)" xlink:href="#ck"/><use transform="matrix(0.05,0,0,0.05,64.85,0)" xlink:href="#cl"/><use transform="matrix(0.05,0,0,0.05,75.8,0)" xlink:href="#cy"/><use transform="matrix(0.05,0,0,0.05,80.8,0)" xlink:href="#cv"/><use transform="matrix(0.05,0,0,0.05,91.75,0)" xlink:href="#cN"/><use transform="matrix(0.05,0,0,0.05,102.7,0)" xlink:href="#cw"/></g><path fill="#333" d="M140-251c80 0 125 45 125 126 0 70-33 111-92 124 6 28 34 38 68 31l-1 36C177 83 129 55 120 2 51-6 15-50 15-125c0-81 44-126 125-126zm-1 214c52 0 73-35 73-88 0-50-21-86-72-86-52 0-73 35-73 86s22 88 72 88" id="cS"/><path fill="#333" d="M199 0l-22-63H83L61 0H9l90-248h61L250 0h-51zm-33-102l-36-108c-10 38-24 72-36 108h72" id="cT"/><g id="P"><use transform="matrix(0.05,0,0,0.05,0,0)" xlink:href="#cS"/><use transform="matrix(0.05,0,0,0.05,14,0)" xlink:href="#cT"/><use transform="matrix(0.05,0,0,0.05,26.950000000000003,0)" xlink:href="#bK"/><use transform="matrix(0.05,0,0,0.05,31.950000000000003,0)" xlink:href="#cS"/><use transform="matrix(0.05,0,0,0.05,45.95,0)" xlink:href="#bL"/></g><g id="Q"><use transform="matrix(0.05,0,0,0.05,0,0)" xlink:href="#cx"/><use transform="matrix(0.05,0,0,0.05,14.950000000000001,0)" xlink:href="#ci"/><use transform="matrix(0.05,0,0,0.05,24.950000000000003,0)" xlink:href="#cp"/><use transform="matrix(0.05,0,0,0.05,30.900000000000002,0)" xlink:href="#cu"/><use transform="matrix(0.05,0,0,0.05,40.900000000000006,0)" xlink:href="#cl"/><use transform="matrix(0.05,0,0,0.05,51.85,0)" xlink:href="#cu"/><use transform="matrix(0.05,0,0,0.05,61.85,0)" xlink:href="#cp"/><use transform="matrix(0.05,0,0,0.05,67.80000000000001,0)" xlink:href="#cu"/></g><g id="R"><use transform="matrix(0.05,0,0,0.05,0,0)" xlink:href="#bP"/><use transform="matrix(0.05,0,0,0.05,12.950000000000001,0)" xlink:href="#bK"/><use transform="matrix(0.05,0,0,0.05,17.950000000000003,0)" xlink:href="#cK"/></g><g id="T"><use transform="matrix(0.05,0,0,0.05,0,0)" xlink:href="#cx"/><use transform="matrix(0.05,0,0,0.05,14.950000000000001,0)" xlink:href="#ck"/><use transform="matrix(0.05,0,0,0.05,25.900000000000002,0)" xlink:href="#cB"/><use transform="matrix(0.05,0,0,0.05,35.900000000000006,0)" xlink:href="#cy"/><use transform="matrix(0.05,0,0,0.05,40.900000000000006,0)" xlink:href="#ci"/></g><path fill="#333" d="M142-158h-39l-4-90h48zm-75 0H28l-4-90h48" id="cU"/><g id="U"><use transform="matrix(0.05,0,0,0.05,0,0)" xlink:href="#cU"/><use transform="matrix(0.05,0,0,0.05,8.5,0)" xlink:href="#cG"/><use transform="matrix(0.05,0,0,0.05,18.5,0)" xlink:href="#cv"/><use transform="matrix(0.05,0,0,0.05,29.450000000000003,0)" xlink:href="#cy"/><use transform="matrix(0.05,0,0,0.05,34.45,0)" xlink:href="#cn"/><use transform="matrix(0.05,0,0,0.05,45.400000000000006,0)" xlink:href="#cn"/><use transform="matrix(0.05,0,0,0.05,56.35,0)" xlink:href="#ci"/><use transform="matrix(0.05,0,0,0.05,66.35000000000001,0)" xlink:href="#cp"/><use transform="matrix(0.05,0,0,0.05,72.30000000000001,0)" xlink:href="#cG"/><use transform="matrix(0.05,0,0,0.05,82.30000000000001,0)" xlink:href="#cU"/></g><path fill="#333" d="M123 10C108 53 80 86 19 72V37c35 8 53-11 59-39L3-190h52l48 148c12-52 28-100 44-148h51" id="cV"/><g id="V"><use transform="matrix(0.05,0,0,0.05,0,0)" xlink:href="#cr"/><use transform="matrix(0.05,0,0,0.05,5.95,0)" xlink:href="#cm"/><use transform="matrix(0.05,0,0,0.05,21.95,0)" xlink:href="#cu"/><use transform="matrix(0.05,0,0,0.05,31.950000000000003,0)" xlink:href="#cv"/><use transform="matrix(0.05,0,0,0.05,42.9,0)" xlink:href="#cV"/></g><g id="W"><use transform="matrix(0.05,0,0,0.05,0,0)" xlink:href="#cG"/><use transform="matrix(0.05,0,0,0.05,10,0)" xlink:href="#cz"/><use transform="matrix(0.05,0,0,0.05,20.950000000000003,0)" xlink:href="#ck"/><use transform="matrix(0.05,0,0,0.05,31.900000000000006,0)" xlink:href="#cq"/><use transform="matrix(0.05,0,0,0.05,38.900000000000006,0)" xlink:href="#cp"/></g><g id="X"><use transform="matrix(0.05,0,0,0.05,0,0)" xlink:href="#cj"/><use transform="matrix(0.05,0,0,0.05,10,0)" xlink:href="#ct"/><use transform="matrix(0.05,0,0,0.05,15,0)" xlink:href="#cy"/><use transform="matrix(0.05,0,0,0.05,20,0)" xlink:href="#cn"/><use transform="matrix(0.05,0,0,0.05,30.950000000000003,0)" xlink:href="#cG"/></g><g id="Y"><use transform="matrix(0.05,0,0,0.05,0,0)" xlink:href="#cj"/><use transform="matrix(0.05,0,0,0.05,10,0)" xlink:href="#ck"/><use transform="matrix(0.05,0,0,0.05,20.950000000000003,0)" xlink:href="#cq"/><use transform="matrix(0.05,0,0,0.05,27.950000000000003,0)" xlink:href="#cq"/><use transform="matrix(0.05,0,0,0.05,34.95,0)" xlink:href="#ci"/><use transform="matrix(0.05,0,0,0.05,44.95,0)" xlink:href="#cG"/><use transform="matrix(0.05,0,0,0.05,54.95,0)" xlink:href="#cn"/><use transform="matrix(0.05,0,0,0.05,65.9,0)" xlink:href="#ck"/><use transform="matrix(0.05,0,0,0.05,76.85000000000001,0)" xlink:href="#cv"/><use transform="matrix(0.05,0,0,0.05,87.80000000000001,0)" xlink:href="#cl"/><use transform="matrix(0.05,0,0,0.05,98.75000000000001,0)" xlink:href="#cy"/><use transform="matrix(0.05,0,0,0.05,103.75,0)" xlink:href="#cv"/><use transform="matrix(0.05,0,0,0.05,114.7,0)" xlink:href="#cN"/></g><g id="Z"><use transform="matrix(0.05,0,0,0.05,0,0)" xlink:href="#cp"/><use transform="matrix(0.05,0,0,0.05,5.95,0)" xlink:href="#ck"/></g><g id="aa"><use transform="matrix(0.05,0,0,0.05,0,0)" xlink:href="#cG"/><use transform="matrix(0.05,0,0,0.05,10,0)" xlink:href="#ck"/><use transform="matrix(0.05,0,0,0.05,20.950000000000003,0)" xlink:href="#cm"/><use transform="matrix(0.05,0,0,0.05,36.95,0)" xlink:href="#ci"/></g><path fill="#333" d="M84 4C32 4 15-41 15-95c0-55 18-99 73-99 29 0 47 12 58 34l2-30h48l-1 265h-49V-32C136-9 114 4 84 4zm21-34c32 0 41-29 41-66 0-36-9-64-40-64-33 0-39 30-40 65 0 43 13 65 39 65" id="cW"/><g id="ab"><use transform="matrix(0.05,0,0,0.05,0,0)" xlink:href="#cW"/><use transform="matrix(0.05,0,0,0.05,10.950000000000001,0)" xlink:href="#co"/><use transform="matrix(0.05,0,0,0.05,21.900000000000002,0)" xlink:href="#ci"/><use transform="matrix(0.05,0,0,0.05,31.900000000000002,0)" xlink:href="#cq"/><use transform="matrix(0.05,0,0,0.05,38.900000000000006,0)" xlink:href="#cV"/></g><g id="ac"><use transform="matrix(0.05,0,0,0.05,0,0)" xlink:href="#cy"/><use transform="matrix(0.05,0,0,0.05,5,0)" xlink:href="#cv"/><use transform="matrix(0.05,0,0,0.05,15.950000000000001,0)" xlink:href="#cp"/><use transform="matrix(0.05,0,0,0.05,21.900000000000002,0)" xlink:href="#ck"/></g><g id="ad"><use transform="matrix(0.05,0,0,0.05,0,0)" xlink:href="#cp"/><use transform="matrix(0.05,0,0,0.05,5.95,0)" xlink:href="#cz"/><use transform="matrix(0.05,0,0,0.05,16.900000000000002,0)" xlink:href="#ci"/></g><g id="ae"><use transform="matrix(0.05,0,0,0.05,0,0)" xlink:href="#cm"/><use transform="matrix(0.05,0,0,0.05,16,0)" xlink:href="#ci"/><use transform="matrix(0.05,0,0,0.05,26,0)" xlink:href="#cp"/><use transform="matrix(0.05,0,0,0.05,31.950000000000003,0)" xlink:href="#cu"/><use transform="matrix(0.05,0,0,0.05,41.95,0)" xlink:href="#cl"/><use transform="matrix(0.05,0,0,0.05,52.900000000000006,0)" xlink:href="#cu"/><use transform="matrix(0.05,0,0,0.05,62.900000000000006,0)" xlink:href="#cp"/><use transform="matrix(0.05,0,0,0.05,68.85000000000001,0)" xlink:href="#cu"/><use transform="matrix(0.05,0,0,0.05,78.85000000000001,0)" xlink:href="#cw"/></g><g id="af"><use transform="matrix(0.05,0,0,0.05,0,0)" xlink:href="#cx"/><use transform="matrix(0.05,0,0,0.05,14.950000000000001,0)" xlink:href="#ck"/><use transform="matrix(0.05,0,0,0.05,25.900000000000002,0)" xlink:href="#cq"/><use transform="matrix(0.05,0,0,0.05,32.900000000000006,0)" xlink:href="#ci"/></g><g id="ag"><use transform="matrix(0.05,0,0,0.05,0,0)" xlink:href="#cu"/><use transform="matrix(0.05,0,0,0.05,10,0)" xlink:href="#cN"/><use transform="matrix(0.05,0,0,0.05,20.950000000000003,0)" xlink:href="#cN"/><use transform="matrix(0.05,0,0,0.05,31.900000000000006,0)" xlink:href="#cq"/><use transform="matrix(0.05,0,0,0.05,38.900000000000006,0)" xlink:href="#ci"/><use transform="matrix(0.05,0,0,0.05,48.900000000000006,0)" xlink:href="#cG"/><use transform="matrix(0.05,0,0,0.05,58.900000000000006,0)" xlink:href="#cG"/><use transform="matrix(0.05,0,0,0.05,68.9,0)" xlink:href="#cy"/><use transform="matrix(0.05,0,0,0.05,73.9,0)" xlink:href="#cB"/><use transform="matrix(0.05,0,0,0.05,83.9,0)" xlink:href="#ci"/></g><g id="ah"><use transform="matrix(0.05,0,0,0.05,0,0)" xlink:href="#cn"/><use transform="matrix(0.05,0,0,0.05,10.950000000000001,0)" xlink:href="#ck"/><use transform="matrix(0.05,0,0,0.05,21.900000000000002,0)" xlink:href="#cG"/><use transform="matrix(0.05,0,0,0.05,31.900000000000002,0)" xlink:href="#cp"/></g><g id="ai"><use transform="matrix(0.05,0,0,0.05,0,0)" xlink:href="#cn"/><use transform="matrix(0.05,0,0,0.05,10.950000000000001,0)" xlink:href="#cq"/><use transform="matrix(0.05,0,0,0.05,17.950000000000003,0)" xlink:href="#ck"/><use transform="matrix(0.05,0,0,0.05,28.900000000000006,0)" xlink:href="#cj"/><use transform="matrix(0.05,0,0,0.05,38.900000000000006,0)" xlink:href="#ci"/><use transform="matrix(0.05,0,0,0.05,48.900000000000006,0)" xlink:href="#cG"/><use transform="matrix(0.05,0,0,0.05,58.900000000000006,0)" xlink:href="#cG"/><use transform="matrix(0.05,0,0,0.05,68.9,0)" xlink:href="#cy"/><use transform="matrix(0.05,0,0,0.05,73.9,0)" xlink:href="#cv"/><use transform="matrix(0.05,0,0,0.05,84.85000000000001,0)" xlink:href="#cN"/></g><g id="aj"><use transform="matrix(0.05,0,0,0.05,0,0)" xlink:href="#cx"/><use transform="matrix(0.05,0,0,0.05,14.950000000000001,0)" xlink:href="#ci"/><use transform="matrix(0.05,0,0,0.05,24.950000000000003,0)" xlink:href="#cp"/><use transform="matrix(0.05,0,0,0.05,30.900000000000002,0)" xlink:href="#cu"/><use transform="matrix(0.05,0,0,0.05,40.900000000000006,0)" xlink:href="#cl"/><use transform="matrix(0.05,0,0,0.05,51.85,0)" xlink:href="#cu"/><use transform="matrix(0.05,0,0,0.05,61.85,0)" xlink:href="#cp"/><use transform="matrix(0.05,0,0,0.05,67.80000000000001,0)" xlink:href="#cu"/></g><g id="ak"><use transform="matrix(0.05,0,0,0.05,0,0)" xlink:href="#cN"/><use transform="matrix(0.05,0,0,0.05,10.950000000000001,0)" xlink:href="#ci"/><use transform="matrix(0.05,0,0,0.05,20.950000000000003,0)" xlink:href="#cv"/><use transform="matrix(0.05,0,0,0.05,31.900000000000006,0)" xlink:href="#ci"/><use transform="matrix(0.05,0,0,0.05,41.900000000000006,0)" xlink:href="#cq"/><use transform="matrix(0.05,0,0,0.05,48.900000000000006,0)" xlink:href="#cu"/><use transform="matrix(0.05,0,0,0.05,58.900000000000006,0)" xlink:href="#cp"/><use transform="matrix(0.05,0,0,0.05,64.85000000000001,0)" xlink:href="#ck"/><use transform="matrix(0.05,0,0,0.05,75.80000000000001,0)" xlink:href="#cq"/><use transform="matrix(0.05,0,0,0.05,82.80000000000001,0)" xlink:href="#cG"/></g><g id="al"><use transform="matrix(0.05,0,0,0.05,0,0)" xlink:href="#cx"/><use transform="matrix(0.05,0,0,0.05,14.950000000000001,0)" xlink:href="#ck"/><use transform="matrix(0.05,0,0,0.05,25.900000000000002,0)" xlink:href="#cp"/><use transform="matrix(0.05,0,0,0.05,31.85,0)" xlink:href="#cy"/><use transform="matrix(0.05,0,0,0.05,36.85,0)" xlink:href="#ck"/><use transform="matrix(0.05,0,0,0.05,47.800000000000004,0)" xlink:href="#cv"/></g><g id="am"><use transform="matrix(0.05,0,0,0.05,0,0)" xlink:href="#cu"/><use transform="matrix(0.05,0,0,0.05,10,0)" xlink:href="#cv"/><use transform="matrix(0.05,0,0,0.05,20.950000000000003,0)" xlink:href="#cu"/><use transform="matrix(0.05,0,0,0.05,30.950000000000003,0)" xlink:href="#ct"/><use transform="matrix(0.05,0,0,0.05,35.95,0)" xlink:href="#cV"/><use transform="matrix(0.05,0,0,0.05,45.95,0)" xlink:href="#cG"/><use transform="matrix(0.05,0,0,0.05,55.95,0)" xlink:href="#cy"/><use transform="matrix(0.05,0,0,0.05,60.95,0)" xlink:href="#cG"/></g><g id="an"><use transform="matrix(0.05,0,0,0.05,0,0)" xlink:href="#bL"/><use transform="matrix(0.05,0,0,0.05,12.950000000000001,0)" xlink:href="#co"/><use transform="matrix(0.05,0,0,0.05,23.900000000000002,0)" xlink:href="#cq"/><use transform="matrix(0.05,0,0,0.05,30.900000000000002,0)" xlink:href="#cq"/><use transform="matrix(0.05,0,0,0.05,37.900000000000006,0)" xlink:href="#ci"/><use transform="matrix(0.05,0,0,0.05,47.900000000000006,0)" xlink:href="#cv"/><use transform="matrix(0.05,0,0,0.05,58.85,0)" xlink:href="#cp"/><use transform="matrix(0.05,0,0,0.05,64.80000000000001,0)" xlink:href="#ct"/><use transform="matrix(0.05,0,0,0.05,69.80000000000001,0)" xlink:href="#cV"/></g><g id="ao"><use transform="matrix(0.05,0,0,0.05,0,0)" xlink:href="#cy"/><use transform="matrix(0.05,0,0,0.05,5,0)" xlink:href="#cv"/></g><g id="ap"><use transform="matrix(0.05,0,0,0.05,0,0)" xlink:href="#cn"/><use transform="matrix(0.05,0,0,0.05,10.950000000000001,0)" xlink:href="#ct"/><use transform="matrix(0.05,0,0,0.05,15.950000000000001,0)" xlink:href="#cu"/><use transform="matrix(0.05,0,0,0.05,25.950000000000003,0)" xlink:href="#cj"/><use transform="matrix(0.05,0,0,0.05,35.95,0)" xlink:href="#ci"/></g><path fill="#333" d="M275 0h-61l-44-196L126 0H64L0-248h53L97-49l45-199h58l43 199 44-199h52" id="cX"/><g id="ar"><use transform="matrix(0.05,0,0,0.05,0,0)" xlink:href="#cX"/><use transform="matrix(0.05,0,0,0.05,16.3,0)" xlink:href="#cu"/><use transform="matrix(0.05,0,0,0.05,26.3,0)" xlink:href="#cv"/><use transform="matrix(0.05,0,0,0.05,37.25,0)" xlink:href="#cp"/></g><g id="as"><use transform="matrix(0.05,0,0,0.05,0,0)" xlink:href="#cA"/><use transform="matrix(0.05,0,0,0.05,5,0)" xlink:href="#cm"/><use transform="matrix(0.05,0,0,0.05,21,0)" xlink:href="#ck"/><use transform="matrix(0.05,0,0,0.05,31.950000000000003,0)" xlink:href="#cB"/></g><g id="at"><use transform="matrix(0.05,0,0,0.05,0,0)" xlink:href="#cA"/><use transform="matrix(0.05,0,0,0.05,5,0)" xlink:href="#cm"/><use transform="matrix(0.05,0,0,0.05,21,0)" xlink:href="#cn"/><use transform="matrix(0.05,0,0,0.05,31.950000000000003,0)" xlink:href="#cD"/></g><g id="au"><use transform="matrix(0.05,0,0,0.05,0,0)" xlink:href="#cS"/><use transform="matrix(0.05,0,0,0.05,14,0)" xlink:href="#co"/><use transform="matrix(0.05,0,0,0.05,24.950000000000003,0)" xlink:href="#ci"/><use transform="matrix(0.05,0,0,0.05,34.95,0)" xlink:href="#cq"/><use transform="matrix(0.05,0,0,0.05,41.95,0)" xlink:href="#cV"/></g><g id="av"><use transform="matrix(0.05,0,0,0.05,0,0)" xlink:href="#cT"/><use transform="matrix(0.05,0,0,0.05,12.950000000000001,0)" xlink:href="#cs"/><use transform="matrix(0.05,0,0,0.05,24.950000000000003,0)" xlink:href="#bM"/></g><g id="aw"><use transform="matrix(0.05,0,0,0.05,0,0)" xlink:href="#bD"/><use transform="matrix(0.05,0,0,0.05,12.950000000000001,0)" xlink:href="#ci"/><use transform="matrix(0.05,0,0,0.05,22.950000000000003,0)" xlink:href="#cp"/><use transform="matrix(0.05,0,0,0.05,28.900000000000002,0)" xlink:href="#cq"/><use transform="matrix(0.05,0,0,0.05,35.900000000000006,0)" xlink:href="#cy"/><use transform="matrix(0.05,0,0,0.05,40.900000000000006,0)" xlink:href="#ci"/><use transform="matrix(0.05,0,0,0.05,50.900000000000006,0)" xlink:href="#cB"/><use transform="matrix(0.05,0,0,0.05,60.900000000000006,0)" xlink:href="#cu"/><use transform="matrix(0.05,0,0,0.05,70.9,0)" xlink:href="#ct"/></g><g id="ax"><use transform="matrix(0.05,0,0,0.05,0,0)" xlink:href="#bM"/><use transform="matrix(0.05,0,0,0.05,5,0)" xlink:href="#cv"/><use transform="matrix(0.05,0,0,0.05,15.950000000000001,0)" xlink:href="#cp"/><use transform="matrix(0.05,0,0,0.05,21.900000000000002,0)" xlink:href="#ci"/><use transform="matrix(0.05,0,0,0.05,31.900000000000002,0)" xlink:href="#cq"/><use transform="matrix(0.05,0,0,0.05,38.900000000000006,0)" xlink:href="#ci"/><use transform="matrix(0.05,0,0,0.05,48.900000000000006,0)" xlink:href="#cG"/><use transform="matrix(0.05,0,0,0.05,58.900000000000006,0)" xlink:href="#cp"/><use transform="matrix(0.05,0,0,0.05,64.85000000000001,0)" xlink:href="#cy"/><use transform="matrix(0.05,0,0,0.05,69.85000000000001,0)" xlink:href="#cv"/><use transform="matrix(0.05,0,0,0.05,80.80000000000001,0)" xlink:href="#cN"/></g><g id="ay"><use transform="matrix(0.05,0,0,0.05,0,0)" xlink:href="#cT"/><use transform="matrix(0.05,0,0,0.05,12.950000000000001,0)" xlink:href="#cv"/><use transform="matrix(0.05,0,0,0.05,23.900000000000002,0)" xlink:href="#cu"/><use transform="matrix(0.05,0,0,0.05,33.900000000000006,0)" xlink:href="#ct"/><use transform="matrix(0.05,0,0,0.05,38.900000000000006,0)" xlink:href="#cV"/><use transform="matrix(0.05,0,0,0.05,48.900000000000006,0)" xlink:href="#cG"/><use transform="matrix(0.05,0,0,0.05,58.900000000000006,0)" xlink:href="#ci"/><use transform="matrix(0.05,0,0,0.05,68.9,0)" xlink:href="#cG"/></g><path fill="#333" d="M76-54c-1 42 2 86-19 110H24C36 42 46 24 48 0H25v-54h51" id="cY"/><g id="az"><use transform="matrix(0.05,0,0,0.05,0,0)" xlink:href="#cr"/><use transform="matrix(0.05,0,0,0.05,5.95,0)" xlink:href="#bL"/><use transform="matrix(0.05,0,0,0.05,18.900000000000002,0)" xlink:href="#cY"/></g><g id="aA"><use transform="matrix(0.05,0,0,0.05,0,0)" xlink:href="#cs"/><use transform="matrix(0.05,0,0,0.05,12,0)" xlink:href="#cV"/><use transform="matrix(0.05,0,0,0.05,22,0)" xlink:href="#cp"/><use transform="matrix(0.05,0,0,0.05,27.950000000000003,0)" xlink:href="#cz"/><use transform="matrix(0.05,0,0,0.05,38.9,0)" xlink:href="#ck"/><use transform="matrix(0.05,0,0,0.05,49.85,0)" xlink:href="#cv"/><use transform="matrix(0.05,0,0,0.05,60.800000000000004,0)" xlink:href="#cY"/></g><g id="aB"><use transform="matrix(0.05,0,0,0.05,0,0)" xlink:href="#cx"/><use transform="matrix(0.05,0,0,0.05,14.950000000000001,0)" xlink:href="#cu"/><use transform="matrix(0.05,0,0,0.05,24.950000000000003,0)" xlink:href="#cp"/><use transform="matrix(0.05,0,0,0.05,30.900000000000002,0)" xlink:href="#ct"/><use transform="matrix(0.05,0,0,0.05,35.900000000000006,0)" xlink:href="#cu"/><use transform="matrix(0.05,0,0,0.05,45.900000000000006,0)" xlink:href="#cK"/><use transform="matrix(0.05,0,0,0.05,56.85,0)" xlink:href="#cw"/></g><g id="aC"><use transform="matrix(0.05,0,0,0.05,0,0)" xlink:href="#cA"/><use transform="matrix(0.05,0,0,0.05,5,0)" xlink:href="#cm"/><use transform="matrix(0.05,0,0,0.05,21,0)" xlink:href="#cn"/><use transform="matrix(0.05,0,0,0.05,31.950000000000003,0)" xlink:href="#cD"/></g><g id="aD"><use transform="matrix(0.05,0,0,0.05,0,0)" xlink:href="#cA"/><use transform="matrix(0.05,0,0,0.05,5,0)" xlink:href="#cn"/><use transform="matrix(0.05,0,0,0.05,15.950000000000001,0)" xlink:href="#cv"/><use transform="matrix(0.05,0,0,0.05,26.900000000000002,0)" xlink:href="#cN"/></g><g id="aE"><use transform="matrix(0.05,0,0,0.05,0,0)" xlink:href="#cG"/><use transform="matrix(0.05,0,0,0.05,10,0)" xlink:href="#cp"/><use transform="matrix(0.05,0,0,0.05,15.949999999999998,0)" xlink:href="#ck"/><use transform="matrix(0.05,0,0,0.05,26.899999999999995,0)" xlink:href="#cq"/><use transform="matrix(0.05,0,0,0.05,33.9,0)" xlink:href="#ci"/></g><path fill="#333" d="M147 0L96-86 75-71V0H25v-261h50v150l67-79h53l-66 74L201 0h-54" id="cZ"/><g id="aF"><use transform="matrix(0.05,0,0,0.05,0,0)" xlink:href="#cZ"/><use transform="matrix(0.05,0,0,0.05,10,0)" xlink:href="#ci"/><use transform="matrix(0.05,0,0,0.05,20,0)" xlink:href="#cV"/><use transform="matrix(0.05,0,0,0.05,30,0)" xlink:href="#cG"/></g><g id="aG"><use transform="matrix(0.05,0,0,0.05,0,0)" xlink:href="#bN"/><use transform="matrix(0.05,0,0,0.05,10.950000000000001,0)" xlink:href="#ck"/><use transform="matrix(0.05,0,0,0.05,21.900000000000002,0)" xlink:href="#cj"/><use transform="matrix(0.05,0,0,0.05,31.900000000000002,0)" xlink:href="#cu"/><use transform="matrix(0.05,0,0,0.05,41.900000000000006,0)" xlink:href="#ct"/></g><g id="aH"><use transform="matrix(0.05,0,0,0.05,0,0)" xlink:href="#cx"/><use transform="matrix(0.05,0,0,0.05,14.950000000000001,0)" xlink:href="#cy"/><use transform="matrix(0.05,0,0,0.05,19.950000000000003,0)" xlink:href="#cq"/><use transform="matrix(0.05,0,0,0.05,26.950000000000003,0)" xlink:href="#cq"/><use transform="matrix(0.05,0,0,0.05,33.95,0)" xlink:href="#ck"/><use transform="matrix(0.05,0,0,0.05,44.900000000000006,0)" xlink:href="#cq"/></g><g id="aI"><use transform="matrix(0.05,0,0,0.05,0,0)" xlink:href="#cr"/><use transform="matrix(0.05,0,0,0.05,5.95,0)" xlink:href="#cy"/><use transform="matrix(0.05,0,0,0.05,10.95,0)" xlink:href="#cv"/></g><g id="aJ"><use transform="matrix(0.05,0,0,0.05,0,0)" xlink:href="#bL"/><use transform="matrix(0.05,0,0,0.05,12.950000000000001,0)" xlink:href="#ct"/><use transform="matrix(0.05,0,0,0.05,17.950000000000003,0)" xlink:href="#ck"/><use transform="matrix(0.05,0,0,0.05,28.900000000000006,0)" xlink:href="#co"/><use transform="matrix(0.05,0,0,0.05,39.85000000000001,0)" xlink:href="#cl"/></g><g id="aK"><use transform="matrix(0.05,0,0,0.05,0,0)" xlink:href="#bE"/><use transform="matrix(0.05,0,0,0.05,12,0)" xlink:href="#cp"/><use transform="matrix(0.05,0,0,0.05,17.95,0)" xlink:href="#ck"/><use transform="matrix(0.05,0,0,0.05,28.899999999999995,0)" xlink:href="#cq"/><use transform="matrix(0.05,0,0,0.05,35.9,0)" xlink:href="#cu"/><use transform="matrix(0.05,0,0,0.05,45.9,0)" xlink:href="#cN"/><use transform="matrix(0.05,0,0,0.05,56.85,0)" xlink:href="#ci"/><use transform="matrix(0.05,0,0,0.05,66.85,0)" xlink:href="#cw"/></g><path fill="#333" d="M231 0h-52l-39-155L100 0H48L-1-190h46L77-45c9-52 24-97 36-145h53l37 145 32-145h46" id="da"/><g id="aL"><use transform="matrix(0.05,0,0,0.05,0,0)" xlink:href="#bP"/><use transform="matrix(0.05,0,0,0.05,12.950000000000001,0)" xlink:href="#ck"/><use transform="matrix(0.05,0,0,0.05,23.900000000000002,0)" xlink:href="#da"/><use transform="matrix(0.05,0,0,0.05,37.900000000000006,0)" xlink:href="#cv"/><use transform="matrix(0.05,0,0,0.05,48.85000000000001,0)" xlink:href="#ct"/><use transform="matrix(0.05,0,0,0.05,53.85,0)" xlink:href="#ck"/><use transform="matrix(0.05,0,0,0.05,64.80000000000001,0)" xlink:href="#cu"/><use transform="matrix(0.05,0,0,0.05,74.80000000000001,0)" xlink:href="#cl"/><use transform="matrix(0.05,0,0,0.05,85.75000000000001,0)" xlink:href="#ci"/><use transform="matrix(0.05,0,0,0.05,95.75000000000001,0)" xlink:href="#cq"/><use transform="matrix(0.05,0,0,0.05,102.75,0)" xlink:href="#bK"/></g><g id="aM"><use transform="matrix(0.05,0,0,0.05,0,0)" xlink:href="#cx"/><use transform="matrix(0.05,0,0,0.05,14.950000000000001,0)" xlink:href="#cy"/><use transform="matrix(0.05,0,0,0.05,19.950000000000003,0)" xlink:href="#cq"/><use transform="matrix(0.05,0,0,0.05,26.950000000000003,0)" xlink:href="#cq"/><use transform="matrix(0.05,0,0,0.05,33.95,0)" xlink:href="#ck"/><use transform="matrix(0.05,0,0,0.05,44.900000000000006,0)" xlink:href="#cq"/><use transform="matrix(0.05,0,0,0.05,51.900000000000006,0)" xlink:href="#ci"/><use transform="matrix(0.05,0,0,0.05,61.900000000000006,0)" xlink:href="#cq"/></g><g id="aN"><use transform="matrix(0.05,0,0,0.05,0,0)" xlink:href="#bE"/><use transform="matrix(0.05,0,0,0.05,12,0)" xlink:href="#cj"/><use transform="matrix(0.05,0,0,0.05,22,0)" xlink:href="#cy"/><use transform="matrix(0.05,0,0,0.05,27,0)" xlink:href="#ci"/><use transform="matrix(0.05,0,0,0.05,37,0)" xlink:href="#cv"/><use transform="matrix(0.05,0,0,0.05,47.95,0)" xlink:href="#cp"/><use transform="matrix(0.05,0,0,0.05,53.900000000000006,0)" xlink:href="#cy"/><use transform="matrix(0.05,0,0,0.05,58.900000000000006,0)" xlink:href="#cF"/><use transform="matrix(0.05,0,0,0.05,64.85000000000001,0)" xlink:href="#cy"/><use transform="matrix(0.05,0,0,0.05,69.85000000000001,0)" xlink:href="#cj"/></g><g id="aO"><use transform="matrix(0.05,0,0,0.05,0,0)" xlink:href="#bP"/><use transform="matrix(0.05,0,0,0.05,12.950000000000001,0)" xlink:href="#cy"/><use transform="matrix(0.05,0,0,0.05,17.950000000000003,0)" xlink:href="#cG"/><use transform="matrix(0.05,0,0,0.05,27.950000000000003,0)" xlink:href="#cj"/><use transform="matrix(0.05,0,0,0.05,37.95,0)" xlink:href="#ck"/><use transform="matrix(0.05,0,0,0.05,48.900000000000006,0)" xlink:href="#cB"/><use transform="matrix(0.05,0,0,0.05,58.900000000000006,0)" xlink:href="#ci"/><use transform="matrix(0.05,0,0,0.05,68.9,0)" xlink:href="#cq"/><use transform="matrix(0.05,0,0,0.05,75.9,0)" xlink:href="#cy"/><use transform="matrix(0.05,0,0,0.05,80.9,0)" xlink:href="#ci"/><use transform="matrix(0.05,0,0,0.05,90.9,0)" xlink:href="#cG"/></g><g id="aP"><use transform="matrix(0.05,0,0,0.05,0,0)" xlink:href="#bL"/><use transform="matrix(0.05,0,0,0.05,12.950000000000001,0)" xlink:href="#cu"/><use transform="matrix(0.05,0,0,0.05,22.950000000000003,0)" xlink:href="#cm"/><use transform="matrix(0.05,0,0,0.05,38.95,0)" xlink:href="#cJ"/><use transform="matrix(0.05,0,0,0.05,51.900000000000006,0)" xlink:href="#bP"/></g><g id="aQ"><use transform="matrix(0.05,0,0,0.05,0,0)" xlink:href="#bL"/><use transform="matrix(0.05,0,0,0.05,12.950000000000001,0)" xlink:href="#ck"/><use transform="matrix(0.05,0,0,0.05,23.900000000000002,0)" xlink:href="#cm"/><use transform="matrix(0.05,0,0,0.05,39.900000000000006,0)" xlink:href="#cm"/><use transform="matrix(0.05,0,0,0.05,55.900000000000006,0)" xlink:href="#cu"/><use transform="matrix(0.05,0,0,0.05,65.9,0)" xlink:href="#cv"/><use transform="matrix(0.05,0,0,0.05,76.85000000000001,0)" xlink:href="#cl"/><use transform="matrix(0.05,0,0,0.05,87.80000000000001,0)" xlink:href="#cG"/></g><g id="aR"><use transform="matrix(0.05,0,0,0.05,0,0)" xlink:href="#bD"/><use transform="matrix(0.05,0,0,0.05,12.950000000000001,0)" xlink:href="#cu"/><use transform="matrix(0.05,0,0,0.05,22.950000000000003,0)" xlink:href="#da"/></g><g id="aS"><use transform="matrix(0.05,0,0,0.05,0,0)" xlink:href="#cB"/><use transform="matrix(0.05,0,0,0.05,10,0)" xlink:href="#cy"/><use transform="matrix(0.05,0,0,0.05,15,0)" xlink:href="#cl"/><use transform="matrix(0.05,0,0,0.05,25.950000000000003,0)" xlink:href="#ci"/><use transform="matrix(0.05,0,0,0.05,35.95,0)" xlink:href="#ck"/></g><use transform="matrix(0.05,0,0,0.05,0,0)" xlink:href="#bK" id="aT"/><g id="aU"><use transform="matrix(0.05,0,0,0.05,0,0)" xlink:href="#cx"/><use transform="matrix(0.05,0,0,0.05,14.950000000000001,0)" xlink:href="#ci"/><use transform="matrix(0.05,0,0,0.05,24.950000000000003,0)" xlink:href="#cp"/><use transform="matrix(0.05,0,0,0.05,30.900000000000002,0)" xlink:href="#cu"/><use transform="matrix(0.05,0,0,0.05,40.900000000000006,0)" xlink:href="#cl"/><use transform="matrix(0.05,0,0,0.05,51.85,0)" xlink:href="#cu"/><use transform="matrix(0.05,0,0,0.05,61.85,0)" xlink:href="#cp"/><use transform="matrix(0.05,0,0,0.05,67.80000000000001,0)" xlink:href="#cu"/></g><g id="aV"><use transform="matrix(0.05,0,0,0.05,0,0)" xlink:href="#cs"/><use transform="matrix(0.05,0,0,0.05,12,0)" xlink:href="#cq"/><use transform="matrix(0.05,0,0,0.05,19,0)" xlink:href="#ck"/><use transform="matrix(0.05,0,0,0.05,29.950000000000003,0)" xlink:href="#bD"/><use transform="matrix(0.05,0,0,0.05,42.900000000000006,0)" xlink:href="#ci"/><use transform="matrix(0.05,0,0,0.05,52.900000000000006,0)" xlink:href="#cG"/></g><g id="aW"><use transform="matrix(0.05,0,0,0.05,0,0)" xlink:href="#cA"/><use transform="matrix(0.05,0,0,0.05,5,0)" xlink:href="#cm"/><use transform="matrix(0.05,0,0,0.05,21,0)" xlink:href="#ck"/><use transform="matrix(0.05,0,0,0.05,31.950000000000003,0)" xlink:href="#cB"/></g><g id="aX"><use transform="matrix(0.05,0,0,0.05,0,0)" xlink:href="#cm"/><use transform="matrix(0.05,0,0,0.05,16,0)" xlink:href="#ci"/><use transform="matrix(0.05,0,0,0.05,26,0)" xlink:href="#cp"/><use transform="matrix(0.05,0,0,0.05,31.950000000000003,0)" xlink:href="#cu"/><use transform="matrix(0.05,0,0,0.05,41.95,0)" xlink:href="#cl"/><use transform="matrix(0.05,0,0,0.05,52.900000000000006,0)" xlink:href="#cu"/><use transform="matrix(0.05,0,0,0.05,62.900000000000006,0)" xlink:href="#cp"/><use transform="matrix(0.05,0,0,0.05,68.85000000000001,0)" xlink:href="#cu"/></g><g id="aY"><use transform="matrix(0.05,0,0,0.05,0,0)" xlink:href="#cX"/><use transform="matrix(0.05,0,0,0.05,15.949999999999998,0)" xlink:href="#cT"/><use transform="matrix(0.05,0,0,0.05,28.899999999999995,0)" xlink:href="#bF"/><use transform="matrix(0.05,0,0,0.05,41.85,0)" xlink:href="#bH"/></g><g id="aZ"><use transform="matrix(0.05,0,0,0.05,0,0)" xlink:href="#bH"/><use transform="matrix(0.05,0,0,0.05,10.600000000000001,0)" xlink:href="#bO"/></g><g id="ba"><use transform="matrix(0.05,0,0,0.05,0,0)" xlink:href="#cT"/><use transform="matrix(0.05,0,0,0.05,12.950000000000001,0)" xlink:href="#bL"/><use transform="matrix(0.05,0,0,0.05,25.900000000000002,0)" xlink:href="#bL"/><use transform="matrix(0.05,0,0,0.05,38.85,0)" xlink:href="#bJ"/><use transform="matrix(0.05,0,0,0.05,50.85,0)" xlink:href="#bN"/><use transform="matrix(0.05,0,0,0.05,61.800000000000004,0)" xlink:href="#bJ"/><use transform="matrix(0.05,0,0,0.05,73.80000000000001,0)" xlink:href="#bD"/><use transform="matrix(0.05,0,0,0.05,86.75000000000001,0)" xlink:href="#cT"/><use transform="matrix(0.05,0,0,0.05,98.35000000000002,0)" xlink:href="#bH"/><use transform="matrix(0.05,0,0,0.05,109.30000000000003,0)" xlink:href="#bJ"/></g><g id="bb"><use transform="matrix(0.05,0,0,0.05,0,0)" xlink:href="#bH"/><use transform="matrix(0.05,0,0,0.05,10.950000000000001,0)" xlink:href="#cJ"/><use transform="matrix(0.05,0,0,0.05,23.900000000000002,0)" xlink:href="#bM"/><use transform="matrix(0.05,0,0,0.05,28.900000000000002,0)" xlink:href="#bE"/></g><g id="bc"><use transform="matrix(0.05,0,0,0.05,0,0)" xlink:href="#bM"/><use transform="matrix(0.05,0,0,0.05,5,0)" xlink:href="#cv"/></g><g id="bd"><use transform="matrix(0.05,0,0,0.05,0,0)" xlink:href="#cl"/><use transform="matrix(0.05,0,0,0.05,10.950000000000001,0)" xlink:href="#ci"/><use transform="matrix(0.05,0,0,0.05,20.950000000000003,0)" xlink:href="#cB"/><use transform="matrix(0.05,0,0,0.05,30.950000000000003,0)" xlink:href="#ci"/><use transform="matrix(0.05,0,0,0.05,40.95,0)" xlink:href="#ct"/><use transform="matrix(0.05,0,0,0.05,45.95,0)" xlink:href="#ck"/><use transform="matrix(0.05,0,0,0.05,56.900000000000006,0)" xlink:href="#cn"/><use transform="matrix(0.05,0,0,0.05,67.85000000000001,0)" xlink:href="#cm"/><use transform="matrix(0.05,0,0,0.05,83.85000000000001,0)" xlink:href="#ci"/><use transform="matrix(0.05,0,0,0.05,93.85000000000001,0)" xlink:href="#cv"/><use transform="matrix(0.05,0,0,0.05,104.80000000000001,0)" xlink:href="#cp"/></g><g id="be"><use transform="matrix(0.05,0,0,0.05,0,0)" xlink:href="#bN"/><use transform="matrix(0.05,0,0,0.05,10.950000000000001,0)" xlink:href="#ck"/><use transform="matrix(0.05,0,0,0.05,21.900000000000002,0)" xlink:href="#cj"/><use transform="matrix(0.05,0,0,0.05,31.900000000000002,0)" xlink:href="#cu"/><use transform="matrix(0.05,0,0,0.05,41.900000000000006,0)" xlink:href="#ct"/></g><g id="bf"><use transform="matrix(0.05,0,0,0.05,0,0)" xlink:href="#cx"/><use transform="matrix(0.05,0,0,0.05,14.950000000000001,0)" xlink:href="#cy"/><use transform="matrix(0.05,0,0,0.05,19.950000000000003,0)" xlink:href="#cq"/><use transform="matrix(0.05,0,0,0.05,26.950000000000003,0)" xlink:href="#cq"/><use transform="matrix(0.05,0,0,0.05,33.95,0)" xlink:href="#ck"/><use transform="matrix(0.05,0,0,0.05,44.900000000000006,0)" xlink:href="#cq"/></g><g id="bg"><use transform="matrix(0.05,0,0,0.05,0,0)" xlink:href="#cT"/><use transform="matrix(0.05,0,0,0.05,12.950000000000001,0)" xlink:href="#cv"/><use transform="matrix(0.05,0,0,0.05,23.900000000000002,0)" xlink:href="#cu"/><use transform="matrix(0.05,0,0,0.05,33.900000000000006,0)" xlink:href="#ct"/><use transform="matrix(0.05,0,0,0.05,38.900000000000006,0)" xlink:href="#cV"/><use transform="matrix(0.05,0,0,0.05,48.900000000000006,0)" xlink:href="#cG"/><use transform="matrix(0.05,0,0,0.05,58.900000000000006,0)" xlink:href="#ci"/><use transform="matrix(0.05,0,0,0.05,68.9,0)" xlink:href="#cG"/></g><g id="bh"><use transform="matrix(0.05,0,0,0.05,0,0)" xlink:href="#bL"/><use transform="matrix(0.05,0,0,0.05,12.950000000000001,0)" xlink:href="#co"/><use transform="matrix(0.05,0,0,0.05,23.900000000000002,0)" xlink:href="#cq"/><use transform="matrix(0.05,0,0,0.05,30.900000000000002,0)" xlink:href="#cq"/><use transform="matrix(0.05,0,0,0.05,37.900000000000006,0)" xlink:href="#ci"/><use transform="matrix(0.05,0,0,0.05,47.900000000000006,0)" xlink:href="#cv"/><use transform="matrix(0.05,0,0,0.05,58.85,0)" xlink:href="#cp"/></g><g id="bi"><use transform="matrix(0.05,0,0,0.05,0,0)" xlink:href="#cn"/><use transform="matrix(0.05,0,0,0.05,10.950000000000001,0)" xlink:href="#cq"/><use transform="matrix(0.05,0,0,0.05,17.950000000000003,0)" xlink:href="#ck"/><use transform="matrix(0.05,0,0,0.05,28.900000000000006,0)" xlink:href="#cj"/><use transform="matrix(0.05,0,0,0.05,38.900000000000006,0)" xlink:href="#ci"/><use transform="matrix(0.05,0,0,0.05,48.900000000000006,0)" xlink:href="#cG"/><use transform="matrix(0.05,0,0,0.05,58.900000000000006,0)" xlink:href="#cG"/></g><path fill="#333" d="M233-177c-1 41-23 64-60 70L243 0h-38l-65-103H63V0H30v-248c88 3 205-21 203 71zM63-129c60-2 137 13 137-47 0-61-80-42-137-45v92" id="db"/><path fill="#333" d="M100-194c63 0 86 42 84 106H49c0 40 14 67 53 68 26 1 43-12 49-29l28 8c-11 28-37 45-77 45C44 4 14-33 15-96c1-61 26-98 85-98zm52 81c6-60-76-77-97-28-3 7-6 17-6 28h103" id="dc"/><path fill="#333" d="M145-31C134-9 116 4 85 4 32 4 16-35 15-94c0-59 17-99 70-100 32-1 48 14 60 33 0-11-1-24 2-32h30l-1 268h-32zM93-21c41 0 51-33 51-76s-8-73-50-73c-40 0-46 35-46 75s5 74 45 74" id="dd"/><path fill="#333" d="M84 4C-5 8 30-112 23-190h32v120c0 31 7 50 39 49 72-2 45-101 50-169h31l1 190h-30c-1-10 1-25-2-33-11 22-28 36-60 37" id="de"/><path fill="#333" d="M24-231v-30h32v30H24zM24 0v-190h32V0H24" id="df"/><path fill="#333" d="M114-163C36-179 61-72 57 0H25l-1-190h30c1 12-1 29 2 39 6-27 23-49 58-41v29" id="dg"/><path fill="#333" d="M135-143c-3-34-86-38-87 0 15 53 115 12 119 90S17 21 10-45l28-5c4 36 97 45 98 0-10-56-113-15-118-90-4-57 82-63 122-42 12 7 21 19 24 35" id="dh"/><g id="bk"><use transform="matrix(0.05,0,0,0.05,0,0)" xlink:href="#db"/><use transform="matrix(0.05,0,0,0.05,12.950000000000001,0)" xlink:href="#dc"/><use transform="matrix(0.05,0,0,0.05,22.950000000000003,0)" xlink:href="#dd"/><use transform="matrix(0.05,0,0,0.05,32.95,0)" xlink:href="#de"/><use transform="matrix(0.05,0,0,0.05,42.95,0)" xlink:href="#df"/><use transform="matrix(0.05,0,0,0.05,46.900000000000006,0)" xlink:href="#dg"/><use transform="matrix(0.05,0,0,0.05,52.85,0)" xlink:href="#dc"/><use transform="matrix(0.05,0,0,0.05,62.85,0)" xlink:href="#dh"/></g><path fill="#333" d="M24 0v-261h32V0H24" id="di"/><path fill="#333" d="M141-36C126-15 110 5 73 4 37 3 15-17 15-53c-1-64 63-63 125-63 3-35-9-54-41-54-24 1-41 7-42 31l-33-3c5-37 33-52 76-52 45 0 72 20 72 64v82c-1 20 7 32 28 27v20c-31 9-61-2-59-35zM48-53c0 20 12 33 32 33 41-3 63-29 60-74-43 2-92-5-92 41" id="dj"/><path fill="#333" d="M177-190C167-65 218 103 67 71c-23-6-38-20-44-43l32-5c15 47 100 32 89-28v-30C133-14 115 1 83 1 29 1 15-40 15-95c0-56 16-97 71-98 29-1 48 16 59 35 1-10 0-23 2-32h30zM94-22c36 0 50-32 50-73 0-42-14-75-50-75-39 0-46 34-46 75s6 73 46 73" id="dk"/><g id="bl"><use transform="matrix(0.05,0,0,0.05,0,0)" xlink:href="#di"/><use transform="matrix(0.05,0,0,0.05,3.95,0)" xlink:href="#dj"/><use transform="matrix(0.05,0,0,0.05,13.949999999999998,0)" xlink:href="#dg"/><use transform="matrix(0.05,0,0,0.05,19.9,0)" xlink:href="#dk"/><use transform="matrix(0.05,0,0,0.05,29.899999999999995,0)" xlink:href="#dc"/></g><path fill="#333" d="M100-194c62-1 85 37 85 99 1 63-27 99-86 99S16-35 15-95c0-66 28-99 85-99zM99-20c44 1 53-31 53-75 0-43-8-75-51-75s-53 32-53 75 10 74 51 75" id="dl"/><path fill="#333" d="M96-169c-40 0-48 33-48 73s9 75 48 75c24 0 41-14 43-38l32 2c-6 37-31 61-74 61-59 0-76-41-82-99-10-93 101-131 147-64 4 7 5 14 7 22l-32 3c-4-21-16-35-41-35" id="dm"/><g id="bm"><use transform="matrix(0.05,0,0,0.05,0,0)" xlink:href="#di"/><use transform="matrix(0.05,0,0,0.05,3.95,0)" xlink:href="#dl"/><use transform="matrix(0.05,0,0,0.05,13.949999999999998,0)" xlink:href="#dm"/><use transform="matrix(0.05,0,0,0.05,22.95,0)" xlink:href="#dj"/><use transform="matrix(0.05,0,0,0.05,32.95,0)" xlink:href="#di"/></g><path fill="#333" d="M85-194c31 0 48 13 60 33l-1-100h32l1 261h-30c-2-10 0-23-3-31C134-8 116 4 85 4 32 4 16-35 15-94c0-66 23-100 70-100zm9 24c-40 0-46 34-46 75 0 40 6 74 45 74 42 0 51-32 51-76 0-42-9-74-50-73" id="dn"/><path fill="#333" d="M143 0L79-87 56-68V0H24v-261h32v163l83-92h37l-77 82L181 0h-38" id="do"/><path fill="#333" d="M0 4l72-265h28L28 4H0" id="dp"/><path fill="#333" d="M59-47c-2 24 18 29 38 22v24C64 9 27 4 27-40v-127H5v-23h24l9-43h21v43h35v23H59v120" id="dq"/><g id="bn"><use transform="matrix(0.05,0,0,0.05,0,0)" xlink:href="#dn"/><use transform="matrix(0.05,0,0,0.05,10,0)" xlink:href="#df"/><use transform="matrix(0.05,0,0,0.05,13.949999999999998,0)" xlink:href="#dh"/><use transform="matrix(0.05,0,0,0.05,22.95,0)" xlink:href="#do"/><use transform="matrix(0.05,0,0,0.05,31.950000000000003,0)" xlink:href="#dp"/><use transform="matrix(0.05,0,0,0.05,36.95,0)" xlink:href="#di"/><use transform="matrix(0.05,0,0,0.05,40.900000000000006,0)" xlink:href="#dl"/><use transform="matrix(0.05,0,0,0.05,50.900000000000006,0)" xlink:href="#dq"/><use transform="matrix(0.05,0,0,0.05,55.900000000000006,0)" xlink:href="#dh"/></g><path fill="#333" d="M101-234c-31-9-42 10-38 44h38v23H63V0H32v-167H5v-23h27c-7-52 17-82 69-68v24" id="dr"/><g id="bo"><use transform="matrix(0.05,0,0,0.05,0,0)" xlink:href="#dl"/><use transform="matrix(0.05,0,0,0.05,10,0)" xlink:href="#dr"/></g><path fill="#333" d="M115-194c53 0 69 39 70 98 0 66-23 100-70 100C84 3 66-7 56-30L54 0H23l1-261h32v101c10-23 28-34 59-34zm-8 174c40 0 45-34 45-75 0-40-5-75-45-74-42 0-51 32-51 76 0 43 10 73 51 73" id="ds"/><path fill="#333" d="M117-194c89-4 53 116 60 194h-32v-121c0-31-8-49-39-48C34-167 62-67 57 0H25l-1-190h30c1 10-1 24 2 32 11-22 29-35 61-36" id="dt"/><path fill="#333" d="M206 0h-36l-40-164L89 0H53L-1-190h32L70-26l43-164h34l41 164 42-164h31" id="du"/><path fill="#333" d="M106-169C34-169 62-67 57 0H25v-261h32l-1 103c12-21 28-36 61-36 89 0 53 116 60 194h-32v-121c2-32-8-49-39-48" id="dv"/><g id="bp"><use transform="matrix(0.05,0,0,0.05,0,0)" xlink:href="#ds"/><use transform="matrix(0.05,0,0,0.05,10,0)" xlink:href="#dj"/><use transform="matrix(0.05,0,0,0.05,20,0)" xlink:href="#dt"/><use transform="matrix(0.05,0,0,0.05,30,0)" xlink:href="#dn"/><use transform="matrix(0.05,0,0,0.05,40,0)" xlink:href="#du"/><use transform="matrix(0.05,0,0,0.05,52.95,0)" xlink:href="#df"/><use transform="matrix(0.05,0,0,0.05,56.900000000000006,0)" xlink:href="#dn"/><use transform="matrix(0.05,0,0,0.05,66.9,0)" xlink:href="#dq"/><use transform="matrix(0.05,0,0,0.05,71.9,0)" xlink:href="#dv"/></g><path fill="#333" d="M30-248c118-7 216 8 213 122C240-48 200 0 122 0H30v-248zM63-27c89 8 146-16 146-99s-60-101-146-95v194" id="dw"/><path fill="#333" d="M47-170H22l-4-78h33" id="dx"/><g id="br"><use transform="matrix(0.05,0,0,0.05,0,0)" xlink:href="#dw"/><use transform="matrix(0.05,0,0,0.05,12.950000000000001,0)" xlink:href="#dl"/><use transform="matrix(0.05,0,0,0.05,22.950000000000003,0)" xlink:href="#dc"/><use transform="matrix(0.05,0,0,0.05,32.95,0)" xlink:href="#dh"/><use transform="matrix(0.05,0,0,0.05,41.95,0)" xlink:href="#dt"/><use transform="matrix(0.05,0,0,0.05,51.95,0)" xlink:href="#dx"/><use transform="matrix(0.05,0,0,0.05,55.35,0)" xlink:href="#dq"/></g><path fill="#333" d="M179-190L93 31C79 59 56 82 12 73V49c39 6 53-20 64-50L1-190h34L92-34l54-156h33" id="dy"/><g id="bs"><use transform="matrix(0.05,0,0,0.05,0,0)" xlink:href="#dg"/><use transform="matrix(0.05,0,0,0.05,5.95,0)" xlink:href="#dc"/><use transform="matrix(0.05,0,0,0.05,15.949999999999998,0)" xlink:href="#dj"/><use transform="matrix(0.05,0,0,0.05,25.950000000000003,0)" xlink:href="#di"/><use transform="matrix(0.05,0,0,0.05,29.899999999999995,0)" xlink:href="#di"/><use transform="matrix(0.05,0,0,0.05,33.85,0)" xlink:href="#dy"/></g><g id="bt"><use transform="matrix(0.05,0,0,0.05,0,0)" xlink:href="#dh"/><use transform="matrix(0.05,0,0,0.05,9,0)" xlink:href="#dm"/><use transform="matrix(0.05,0,0,0.05,18,0)" xlink:href="#dj"/><use transform="matrix(0.05,0,0,0.05,28,0)" xlink:href="#di"/><use transform="matrix(0.05,0,0,0.05,31.950000000000003,0)" xlink:href="#dc"/></g><path fill="#333" d="M197 0v-115H63V0H30v-248h33v105h134v-105h34V0h-34" id="dz"/><g id="bu"><use transform="matrix(0.05,0,0,0.05,0,0)" xlink:href="#dz"/><use transform="matrix(0.05,0,0,0.05,12.950000000000001,0)" xlink:href="#dj"/><use transform="matrix(0.05,0,0,0.05,22.950000000000003,0)" xlink:href="#dg"/><use transform="matrix(0.05,0,0,0.05,28.900000000000002,0)" xlink:href="#dn"/></g><g id="bv"><use transform="matrix(0.05,0,0,0.05,0,0)" xlink:href="#dq"/><use transform="matrix(0.05,0,0,0.05,5,0)" xlink:href="#dl"/></g><g id="bw"><use transform="matrix(0.05,0,0,0.05,0,0)" xlink:href="#dh"/><use transform="matrix(0.05,0,0,0.05,9,0)" xlink:href="#dv"/><use transform="matrix(0.05,0,0,0.05,19,0)" xlink:href="#dj"/><use transform="matrix(0.05,0,0,0.05,29,0)" xlink:href="#dg"/><use transform="matrix(0.05,0,0,0.05,34.95,0)" xlink:href="#dc"/></g><g id="bx"><use transform="matrix(0.05,0,0,0.05,0,0)" xlink:href="#du"/><use transform="matrix(0.05,0,0,0.05,12.950000000000001,0)" xlink:href="#dl"/><use transform="matrix(0.05,0,0,0.05,22.950000000000003,0)" xlink:href="#dg"/><use transform="matrix(0.05,0,0,0.05,28.900000000000002,0)" xlink:href="#do"/></g><path fill="#333" d="M87 75C49 33 22-17 22-94c0-76 28-126 65-167h31c-38 41-64 92-64 168S80 34 118 75H87" id="dA"/><g id="by"><use transform="matrix(0.05,0,0,0.05,0,0)" xlink:href="#dA"/><use transform="matrix(0.05,0,0,0.05,5.95,0)" xlink:href="#du"/><use transform="matrix(0.05,0,0,0.05,18.900000000000002,0)" xlink:href="#dp"/><use transform="matrix(0.05,0,0,0.05,23.900000000000002,0)" xlink:href="#dl"/></g><g id="bz"><use transform="matrix(0.05,0,0,0.05,0,0)" xlink:href="#dh"/><use transform="matrix(0.05,0,0,0.05,9,0)" xlink:href="#dv"/><use transform="matrix(0.05,0,0,0.05,19,0)" xlink:href="#dj"/><use transform="matrix(0.05,0,0,0.05,29,0)" xlink:href="#dg"/><use transform="matrix(0.05,0,0,0.05,34.95,0)" xlink:href="#df"/><use transform="matrix(0.05,0,0,0.05,38.900000000000006,0)" xlink:href="#dt"/><use transform="matrix(0.05,0,0,0.05,48.900000000000006,0)" xlink:href="#dk"/></g><path fill="#333" d="M210-169c-67 3-38 105-44 169h-31v-121c0-29-5-50-35-48C34-165 62-65 56 0H25l-1-190h30c1 10-1 24 2 32 10-44 99-50 107 0 11-21 27-35 58-36 85-2 47 119 55 194h-31v-121c0-29-5-49-35-48" id="dB"/><path fill="#333" d="M33-261c38 41 65 92 65 168S71 34 33 75H2C39 34 66-17 66-93S39-220 2-261h31" id="dC"/><g id="bA"><use transform="matrix(0.05,0,0,0.05,0,0)" xlink:href="#dB"/><use transform="matrix(0.05,0,0,0.05,14.950000000000001,0)" xlink:href="#df"/><use transform="matrix(0.05,0,0,0.05,18.900000000000002,0)" xlink:href="#dg"/><use transform="matrix(0.05,0,0,0.05,24.85,0)" xlink:href="#dg"/><use transform="matrix(0.05,0,0,0.05,30.8,0)" xlink:href="#dl"/><use transform="matrix(0.05,0,0,0.05,40.8,0)" xlink:href="#dg"/><use transform="matrix(0.05,0,0,0.05,46.75,0)" xlink:href="#dC"/></g></defs></g></svg>